<svg width="25" height="25" viewBox="0 0 25 25" fill="none" xmlns="http://www.w3.org/2000/svg">
<g clip-path="url(#clip0_402_15682)">
<path d="M25 12.5C25 5.87258 19.4036 0.5 12.5 0.5C5.59644 0.5 0 5.87258 0 12.5C0 18.4895 4.57104 23.454 10.5469 24.3542V15.9687H7.37305V12.5H10.5469V9.85625C10.5469 6.84875 12.4131 5.1875 15.2683 5.1875C16.6355 5.1875 18.0664 5.42187 18.0664 5.42187V8.375H16.4902C14.9375 8.375 14.4531 9.30008 14.4531 10.25V12.5H17.9199L17.3657 15.9687H14.4531V24.3542C20.429 23.454 25 18.4895 25 12.5Z" fill="#828282"/>
</g>
<defs>
<clipPath id="clip0_402_15682">
<rect width="25" height="24" fill="white" transform="translate(0 0.5)"/>
</clipPath>
</defs>
</svg>
