<svg width="30" height="31" viewBox="0 0 30 31" fill="none" xmlns="http://www.w3.org/2000/svg">
<path d="M26.7857 0H3.21429C1.43973 0 0 1.48772 0 3.32143V27.6786C0 29.5123 1.43973 31 3.21429 31H26.7857C28.5603 31 30 29.5123 30 27.6786V3.32143C30 1.48772 28.5603 0 26.7857 0ZM9.67634 19.8594C7.32589 19.8594 5.42411 17.8942 5.42411 15.4654C5.42411 13.0366 7.32589 11.0714 9.67634 11.0714C12.0268 11.0714 13.9286 13.0366 13.9286 15.4654C13.9286 17.8942 12.0268 19.8594 9.67634 19.8594ZM20.3237 19.8594C17.9732 19.8594 16.0714 17.8942 16.0714 15.4654C16.0714 13.0366 17.9732 11.0714 20.3237 11.0714C22.6741 11.0714 24.5759 13.0366 24.5759 15.4654C24.5759 17.8942 22.6741 19.8594 20.3237 19.8594Z" fill="black"/>
</svg>
