<svg width="26" height="25" viewBox="0 0 26 25" fill="none" xmlns="http://www.w3.org/2000/svg">
<g clip-path="url(#clip0_402_15685)">
<path d="M24.0754 0.5H1.91953C0.858203 0.5 0 1.27344 0 2.22969V22.7656C0 23.7219 0.858203 24.5 1.91953 24.5H24.0754C25.1367 24.5 26 23.7219 26 22.7703V2.22969C26 1.27344 25.1367 0.5 24.0754 0.5ZM7.71367 20.9516H3.8543V9.49531H7.71367V20.9516ZM5.78398 7.93438C4.54492 7.93438 3.54453 7.01094 3.54453 5.87187C3.54453 4.73281 4.54492 3.80937 5.78398 3.80937C7.01797 3.80937 8.01836 4.73281 8.01836 5.87187C8.01836 7.00625 7.01797 7.93438 5.78398 7.93438ZM22.1559 20.9516H18.3016V15.3828C18.3016 14.0562 18.2762 12.3453 16.2957 12.3453C14.2898 12.3453 13.9852 13.7937 13.9852 15.2891V20.9516H10.1359V9.49531H13.8328V11.0609H13.8836C14.3965 10.1609 15.6559 9.20938 17.5297 9.20938C21.4348 9.20938 22.1559 11.5813 22.1559 14.6656V20.9516Z" fill="#FFFFFF"/>
</g>
<defs>
<clipPath id="clip0_402_15685">
<rect width="26" height="24" fill="white" transform="translate(0 0.5)"/>
</clipPath>
</defs>
</svg>
