<svg width="140" height="20" viewBox="0 0 140 20" fill="none" xmlns="http://www.w3.org/2000/svg">
<g clip-path="url(#clip0_402:15768)">
<path d="M8.95141 0L15.4188 17.3165C15.5798 17.8607 15.9001 18.3411 16.3363 18.6927C16.6125 18.9018 16.9359 19.0359 17.2762 19.0826V19.633C16.8365 19.6059 16.3956 19.6059 15.9559 19.633H12.4425C11.9506 19.6034 11.4574 19.6034 10.9655 19.633V19.0826C11.5833 19.1244 12.1972 18.955 12.711 18.6009C12.9572 18.3028 12.89 17.7064 12.532 16.7661L7.54156 3.00459L7.96675 2.66055L3.31202 15.1606C2.99074 15.8826 2.80838 16.6613 2.77494 17.4541C2.76328 17.69 2.81311 17.9248 2.9193 18.1344C3.02549 18.344 3.18421 18.5209 3.37916 18.6468C3.9155 18.9142 4.50596 19.0478 5.1023 19.0367V19.5872C4.60997 19.5872 4.07289 19.5872 3.53581 19.5872H0.872762C0.582331 19.5627 0.290431 19.5627 0 19.5872L0 19.0826C0.418606 18.9336 0.795134 18.6815 1.09655 18.3486C1.60298 17.8929 1.99452 17.3185 2.23785 16.6743L8.4367 0H8.95141ZM12.1292 11.6972V12.2477H4.14003L4.4757 11.6972H12.1292Z" fill="#231F20"/>
<path d="M40.2818 0.137695V0.688154C39.8132 0.682526 39.3484 0.776229 38.9168 0.963383C38.7606 1.04441 38.6225 1.15749 38.5108 1.29559C38.3992 1.43369 38.3164 1.59386 38.2678 1.76614C38.1555 2.27783 38.103 2.80137 38.1111 3.32577V11.6056C38.1305 12.7348 38.0481 13.8635 37.865 14.9771C37.7286 15.8484 37.4406 16.6874 37.0146 17.4542C36.5346 18.245 35.8539 18.8871 35.0453 19.312C34.1307 19.7864 33.1161 20.0227 32.0913 20.0001C31.2691 20.0084 30.4493 19.9082 29.6521 19.7019C28.8852 19.4842 28.1797 19.0833 27.5932 18.5322C27.1056 18.0557 26.6906 17.5068 26.3624 16.9037C26.0462 16.2485 25.8418 15.5426 25.7582 14.8166C25.6393 13.7815 25.587 12.7395 25.6015 11.6973V3.05054C25.6249 2.54829 25.572 2.04536 25.4449 1.55971C25.3981 1.40655 25.3171 1.26668 25.2083 1.15121C25.0996 1.03575 24.966 0.947876 24.8183 0.894576C24.3821 0.762831 23.9303 0.693369 23.4756 0.688154V0.137695H24.9526L26.8547 0.229438H28.7345H30.2787V0.688154C29.8089 0.689085 29.3418 0.75859 28.8912 0.894576C28.7435 0.947876 28.6099 1.03575 28.5012 1.15121C28.3924 1.26668 28.3114 1.40655 28.2646 1.55971C28.1375 2.04536 28.0846 2.54829 28.1079 3.05054V12.2248C28.0992 13.3775 28.1891 14.5287 28.3765 15.6652C28.4993 16.6096 28.906 17.4914 29.5402 18.1882C29.9232 18.5245 30.368 18.779 30.8484 18.9365C31.3288 19.0941 31.8351 19.1516 32.3375 19.1056C33.4612 19.1841 34.5767 18.8598 35.4928 18.1882C36.2634 17.5296 36.8116 16.6387 37.0593 15.6423C37.367 14.4527 37.5175 13.2261 37.5069 11.9955V3.32577C37.5265 2.79431 37.4428 2.26416 37.2607 1.76614C37.1935 1.58654 37.0914 1.4228 36.9606 1.28482C36.8298 1.14684 36.6731 1.03749 36.4999 0.963383C36.0499 0.785401 35.5723 0.692162 35.09 0.688154V0.137695H36.3656H37.8426H39.2301H40.2818Z" fill="#231F20"/>
<path d="M62.6604 0.137695C62.6604 0.825769 62.6604 1.51384 62.5262 2.15604C62.3919 2.79825 62.5262 3.30283 62.5262 3.66981C62.5262 4.03678 62.5262 4.51843 62.5262 4.90834C62.5262 5.29825 62.5262 5.61935 62.5262 5.91751H61.9219C61.8386 4.8871 61.6664 3.86629 61.4072 2.86705C61.2407 2.20855 60.8421 1.6366 60.2883 1.26155C59.4914 0.882341 58.6136 0.716617 57.7371 0.779897H56.2825V16.4221C56.2588 16.9802 56.3269 17.5385 56.484 18.0735C56.5508 18.2556 56.6585 18.4191 56.7985 18.5506C56.9385 18.6821 57.1067 18.7779 57.2896 18.8304C57.8463 18.9753 58.4164 19.0599 58.9903 19.0826V19.6331C58.5428 19.6331 57.9386 19.6331 57.2224 19.6331H52.7467C52.0306 19.6331 51.4712 19.6331 51.0236 19.6331V19.0826C51.6051 19.0613 52.1827 18.9768 52.7467 18.8304C52.958 18.8023 53.1583 18.7175 53.3272 18.5846C53.4962 18.4517 53.6279 18.2754 53.709 18.0735C53.7987 17.5269 53.7987 16.9687 53.709 16.4221V0.779897H52.2544C51.4 0.723345 50.5456 0.889026 49.7704 1.26155C49.4865 1.43909 49.2395 1.67229 49.0437 1.94779C48.8479 2.22328 48.707 2.53567 48.6291 2.86705C48.3699 3.86629 48.1977 4.8871 48.1144 5.91751H47.4878C47.5124 5.58159 47.5124 5.24426 47.4878 4.90834C47.4878 4.51843 47.4878 4.10559 47.4878 3.66981C47.4878 3.23403 47.4878 2.82118 47.4878 2.15604C47.4878 1.49091 47.4878 0.825769 47.3535 0.137695H49.7928H52.4782H57.3567H60.0198H62.6604Z" fill="#231F20"/>
<path d="M86.6049 0.137695V0.688154C86.129 0.68327 85.6571 0.776883 85.2174 0.963383C85.0638 1.0446 84.9286 1.15806 84.8207 1.29637C84.7127 1.43468 84.6344 1.59474 84.5908 1.76614C84.4674 2.2759 84.4147 2.80093 84.4341 3.32577V11.6056C84.4422 12.7344 84.3598 13.8621 84.188 14.9771C84.0516 15.8484 83.7636 16.6874 83.3376 17.4542C82.8517 18.2399 82.1725 18.8807 81.3683 19.312C80.4537 19.7864 79.4391 20.0227 78.4143 20.0001C77.5848 20.0069 76.7578 19.9067 75.9527 19.7019C75.1722 19.4852 74.4518 19.0847 73.8491 18.5322C73.367 18.0563 72.9594 17.507 72.6407 16.9037C72.3244 16.2485 72.12 15.5426 72.0364 14.8166C71.9175 13.7815 71.8652 12.7395 71.8798 11.6973V3.05054C71.8981 2.54699 71.8376 2.04369 71.7008 1.55971C71.6573 1.40481 71.5775 1.26318 71.4682 1.14723C71.359 1.03127 71.2237 0.944525 71.0742 0.894576C70.6384 0.761066 70.1863 0.691567 69.7314 0.688154V0.137695H71.2084H73.1777H75.0352H76.5793V0.688154C76.1169 0.688738 75.657 0.758273 75.2142 0.894576C75.0632 0.946438 74.926 1.0335 74.8134 1.14892C74.7008 1.26433 74.6158 1.40495 74.5652 1.55971C74.4493 2.04744 74.3966 2.5487 74.4086 3.05054V12.2248C74.3998 13.3775 74.4897 14.5287 74.6771 15.6652C74.8136 16.6055 75.2185 17.4833 75.8408 18.1882C76.2285 18.5241 76.6773 18.7781 77.1612 18.9356C77.6451 19.0931 78.1547 19.1508 78.6605 19.1056C79.7843 19.1841 80.8997 18.8598 81.8158 18.1882C82.5793 17.5274 83.1197 16.6364 83.36 15.6423C83.6796 14.4551 83.8303 13.2268 83.8075 11.9955V3.32577C83.8331 2.7959 83.7571 2.26603 83.5837 1.76614C83.4362 1.40315 83.1547 1.11463 82.8005 0.963383C82.3429 0.785103 81.8579 0.691901 81.3683 0.688154V0.137695H82.6439H84.0985H85.4859H86.6049Z" fill="#231F20"/>
<path d="M115.227 0.137695V0.688154C114.757 0.689085 114.29 0.75859 113.839 0.894576C113.692 0.947876 113.558 1.03575 113.449 1.15121C113.341 1.26668 113.26 1.40655 113.213 1.55971C113.086 2.04536 113.033 2.54829 113.056 3.05054V16.812C113.033 17.3143 113.086 17.8172 113.213 18.3028C113.256 18.4577 113.336 18.5994 113.445 18.7153C113.555 18.8313 113.69 18.918 113.839 18.968C114.291 19.1023 114.757 19.1793 115.227 19.1973V19.7478C114.713 19.7196 114.197 19.7196 113.683 19.7478H109.856C109.364 19.7193 108.871 19.7193 108.379 19.7478V19.0826C108.849 19.0646 109.315 18.9876 109.767 18.8533C109.916 18.8033 110.051 18.7166 110.161 18.6006C110.27 18.4847 110.35 18.3431 110.393 18.1882C110.52 17.7025 110.573 17.1996 110.55 16.6973V1.55971H110.662L104.082 19.679H103.657L96.8989 1.90375V16.4221C96.8794 16.9469 96.9322 17.472 97.0555 17.9817C97.1103 18.1611 97.2028 18.3259 97.3266 18.4646C97.4503 18.6033 97.6022 18.7125 97.7716 18.7845C98.2737 18.9737 98.8033 19.0745 99.3381 19.0826V19.6331C98.9134 19.6045 98.4873 19.6045 98.0626 19.6331H95.2429C94.8629 19.6046 94.4815 19.6046 94.1016 19.6331V19.0826C94.5779 19.0706 95.0481 18.9695 95.489 18.7845C95.6652 18.7199 95.8239 18.6134 95.9523 18.4739C96.0806 18.3344 96.1749 18.1657 96.2275 17.9817C96.2986 17.4644 96.2986 16.9394 96.2275 16.4221V3.05054C96.3023 2.55655 96.3023 2.0537 96.2275 1.55971C96.1807 1.40655 96.0997 1.26668 95.991 1.15121C95.8822 1.03575 95.7486 0.947876 95.6009 0.894576C95.1144 0.747369 94.6087 0.677747 94.1016 0.688154V0.137695H95.2429H96.5856H97.8164H98.8682L104.978 16.6056L104.508 16.812L110.55 0.229438H111.892H113.75L115.227 0.137695Z" fill="#231F20"/>
<path d="M140 0.137695V0.688154C139.524 0.680681 139.052 0.774394 138.613 0.963383C138.456 1.04083 138.319 1.15312 138.211 1.29201C138.102 1.43091 138.026 1.59291 137.986 1.76614C137.853 2.27445 137.793 2.79977 137.807 3.32577V19.7707H137.203L126.014 1.90375V16.4221C125.988 16.9486 126.049 17.4756 126.193 17.9817C126.239 18.1618 126.326 18.3281 126.447 18.4675C126.567 18.6069 126.718 18.7155 126.886 18.7845C127.388 18.9737 127.918 19.0745 128.453 19.0826V19.6331C128.028 19.6038 127.602 19.6038 127.177 19.6331H124.268C123.888 19.6061 123.507 19.6061 123.127 19.6331V19.0826C123.603 19.0706 124.073 18.9696 124.514 18.7845C124.67 18.7057 124.806 18.593 124.914 18.4543C125.023 18.3156 125.1 18.1543 125.141 17.9817C125.272 17.4731 125.332 16.948 125.32 16.4221V3.05054C125.343 2.54829 125.29 2.04537 125.163 1.55971C125.116 1.40655 125.035 1.26668 124.927 1.15121C124.818 1.03575 124.684 0.947877 124.537 0.894576C124.064 0.751964 123.574 0.68239 123.082 0.688154V0.137695H124.223H125.588H126.707H127.67L137.158 15.1148V3.32577C137.172 2.79977 137.112 2.27445 136.979 1.76614C136.925 1.58967 136.836 1.42688 136.716 1.2885C136.597 1.15013 136.45 1.03932 136.285 0.963383C135.783 0.776593 135.253 0.683381 134.719 0.688154V0.137695H135.994H137.449H138.837H140Z" fill="#231F20"/>
<path d="M5.59028 0.137695L0 12.8631V0.137695H5.59028Z" fill="#99521F"/>
</g>
<defs>
<clipPath id="clip0_402:15768">
<rect width="140" height="20" fill="white"/>
</clipPath>
</defs>
</svg>
