<svg width="218" height="79" viewBox="0 0 218 79" fill="none" xmlns="http://www.w3.org/2000/svg">
<path d="M24.1013 26.2916C24.7731 28.0193 25.7388 28.911 26.9984 28.9667V29.8027C25.8788 29.7191 24.3812 29.6773 22.5057 29.6773C20.0984 29.6773 18.3069 29.7191 17.1312 29.8027V28.9667C18.1949 28.911 18.9507 28.7856 19.3986 28.5905C19.8744 28.3676 20.1124 27.9775 20.1124 27.4201C20.1124 26.9464 19.9444 26.2916 19.6085 25.4556L17.0472 18.6006H6.88607L5.16455 23.0313C4.60471 24.536 4.32479 25.6785 4.32479 26.4588C4.32479 27.3226 4.61871 27.9496 5.20654 28.3397C5.82237 28.7299 6.74611 28.9388 7.97777 28.9667V29.8027C6.38221 29.7191 4.77266 29.6773 3.14912 29.6773C1.88947 29.6773 0.839765 29.7191 0 29.8027V28.9667C1.39961 28.6323 2.5053 27.4201 3.31707 25.3302L13.1843 0H13.8561L24.1013 26.2916ZM16.7113 17.7646L12.0086 5.26668L7.22198 17.7646H16.7113Z" fill="black"/>
<path d="M59.187 25.2884C59.187 26.5702 59.425 27.5037 59.9008 28.0889C60.3767 28.6741 61.2025 28.9667 62.3781 28.9667V29.8445C61.5104 29.7609 60.6426 29.7191 59.7749 29.7191C58.0114 29.7191 56.5558 29.9142 55.4081 30.3043V25.372C54.7363 27.0997 53.7845 28.3676 52.5529 29.1757C51.3212 29.9838 49.9776 30.3879 48.522 30.3879C46.6185 30.3879 45.1629 29.8584 44.1552 28.7995C43.6514 28.2422 43.2875 27.5316 43.0635 26.6678C42.8676 25.8039 42.7696 24.6893 42.7696 23.3238V12.8323C42.7696 11.5505 42.5317 10.6169 42.0558 10.0318C41.58 9.44658 40.7542 9.15398 39.5785 9.15398V8.2762C40.4463 8.3598 41.314 8.4016 42.1818 8.4016C43.9453 8.4016 45.4009 8.20654 46.5486 7.81642V24.2434C46.5486 25.3023 46.6045 26.1662 46.7165 26.835C46.8565 27.4759 47.1504 28.0053 47.5983 28.4233C48.0741 28.8413 48.7879 29.0503 49.7397 29.0503C50.8034 29.0503 51.7691 28.7159 52.6369 28.0471C53.5046 27.3783 54.1764 26.4727 54.6523 25.3302C55.1562 24.1598 55.4081 22.878 55.4081 21.4847V12.8323C55.4081 11.5505 55.1701 10.6169 54.6943 10.0318C54.2184 9.44658 53.3926 9.15398 52.217 9.15398V8.2762C53.0847 8.3598 53.9525 8.4016 54.8202 8.4016C56.5838 8.4016 58.0393 8.20654 59.187 7.81642V25.2884Z" fill="black"/>
<path d="M84.7182 8.318H90.9324V9.15398H84.7182V25.3302C84.7182 26.5842 84.9421 27.4898 85.39 28.0471C85.8659 28.6045 86.5377 28.8831 87.4054 28.8831C88.2732 28.8831 89.015 28.5348 89.6308 27.8381C90.2466 27.1415 90.7645 25.999 91.1844 24.4106L92.0241 24.6196C91.3243 28.4651 89.5048 30.3879 86.5657 30.3879C85.6139 30.3879 84.8301 30.2764 84.2143 30.0535C83.5985 29.8306 83.0526 29.4822 82.5768 29.0085C81.9609 28.3955 81.5271 27.6431 81.2751 26.7514C81.0512 25.8596 80.9392 24.6614 80.9392 23.1567V9.15398H76.9084V8.318H80.9392V1.92275C82.5068 1.86702 83.7664 1.67196 84.7182 1.33757V8.318Z" fill="black"/>
<path d="M125.3 25.2884C125.3 26.5702 125.538 27.5037 126.014 28.0889C126.49 28.6741 127.316 28.9667 128.492 28.9667V29.8445C127.624 29.7609 126.756 29.7191 125.888 29.7191C124.125 29.7191 122.669 29.9142 121.522 30.3043V25.372C120.85 27.0997 119.898 28.3676 118.666 29.1757C117.435 29.9838 116.091 30.3879 114.635 30.3879C112.732 30.3879 111.276 29.8584 110.269 28.7995C109.765 28.2422 109.401 27.5316 109.177 26.6678C108.981 25.8039 108.883 24.6893 108.883 23.3238V12.8323C108.883 11.5505 108.645 10.6169 108.169 10.0318C107.693 9.44658 106.868 9.15398 105.692 9.15398V8.2762C106.56 8.3598 107.427 8.4016 108.295 8.4016C110.059 8.4016 111.514 8.20654 112.662 7.81642V24.2434C112.662 25.3023 112.718 26.1662 112.83 26.835C112.97 27.4759 113.264 28.0053 113.712 28.4233C114.188 28.8413 114.901 29.0503 115.853 29.0503C116.917 29.0503 117.883 28.7159 118.75 28.0471C119.618 27.3783 120.29 26.4727 120.766 25.3302C121.27 24.1598 121.522 22.878 121.522 21.4847V12.8323C121.522 11.5505 121.284 10.6169 120.808 10.0318C120.332 9.44658 119.506 9.15398 118.33 9.15398V8.2762C119.198 8.3598 120.066 8.4016 120.934 8.4016C122.697 8.4016 124.153 8.20654 125.3 7.81642V25.2884Z" fill="black"/>
<path d="M176.318 25.9154C176.318 27.0579 176.556 27.8521 177.032 28.2979C177.508 28.7159 178.334 28.9249 179.51 28.9249V29.8027C176.934 29.6912 175.255 29.6355 174.471 29.6355C173.687 29.6355 172.12 29.6912 169.768 29.8027V28.9249C170.804 28.9249 171.518 28.7159 171.91 28.2979C172.33 27.8521 172.54 27.0579 172.54 25.9154V13.8355C172.54 12.7766 172.47 11.9266 172.33 11.2857C172.218 10.6169 171.924 10.0736 171.448 9.65557C171 9.23758 170.3 9.02859 169.348 9.02859C168.285 9.02859 167.319 9.36298 166.451 10.0318C165.583 10.7005 164.898 11.6201 164.394 12.7905C163.918 13.933 163.68 15.2009 163.68 16.5942V25.9154C163.68 27.0579 163.918 27.8521 164.394 28.2979C164.87 28.7159 165.695 28.9249 166.871 28.9249V29.8027C164.296 29.6912 162.616 29.6355 161.833 29.6355C161.049 29.6355 159.481 29.6912 157.13 29.8027V28.9249C158.166 28.9249 158.879 28.7159 159.271 28.2979C159.691 27.8521 159.901 27.0579 159.901 25.9154V13.8355C159.901 12.7766 159.831 11.9266 159.691 11.2857C159.579 10.6169 159.285 10.0736 158.809 9.65557C158.362 9.23758 157.662 9.02859 156.71 9.02859C155.646 9.02859 154.681 9.36298 153.813 10.0318C152.945 10.7005 152.259 11.6201 151.755 12.7905C151.279 13.9609 151.042 15.2427 151.042 16.636V25.9154C151.042 27.0579 151.238 27.8521 151.629 28.2979C152.049 28.7159 152.777 28.9249 153.813 28.9249V29.8027C151.461 29.6912 149.894 29.6355 149.11 29.6355C148.326 29.6355 146.647 29.6912 144.072 29.8027V28.9249C145.247 28.9249 146.073 28.7159 146.549 28.2979C147.025 27.8521 147.263 27.0579 147.263 25.9154V12.8323C147.263 11.5505 147.025 10.6169 146.549 10.0318C146.073 9.44658 145.247 9.15398 144.072 9.15398V8.2762C144.967 8.3598 145.835 8.4016 146.675 8.4016C148.438 8.4016 149.894 8.20654 151.042 7.81642V12.7487C151.713 11.021 152.665 9.7531 153.897 8.94499C155.128 8.10901 156.472 7.69102 157.928 7.69102C159.831 7.69102 161.287 8.22047 162.294 9.27938C162.994 10.0039 163.428 11.1185 163.596 12.6233C164.296 10.8677 165.262 9.61377 166.493 8.86139C167.725 8.08114 169.083 7.69102 170.566 7.69102C172.47 7.69102 173.925 8.22047 174.933 9.27938C175.437 9.8367 175.787 10.5473 175.983 11.4111C176.207 12.275 176.318 13.3896 176.318 14.755V25.9154Z" fill="black"/>
<path d="M208.889 7.69102C210.848 7.69102 212.332 8.22047 213.339 9.27938C213.871 9.8367 214.249 10.5333 214.473 11.3693C214.697 12.2053 214.809 13.3339 214.809 14.755V25.9154C214.809 27.0579 215.047 27.8521 215.523 28.2979C215.999 28.7159 216.824 28.9249 218 28.9249V29.8027C215.425 29.6912 213.745 29.6355 212.961 29.6355C212.178 29.6355 210.61 29.6912 208.259 29.8027V28.9249C209.294 28.9249 210.008 28.7159 210.4 28.2979C210.82 27.8521 211.03 27.0579 211.03 25.9154V13.8355C211.03 12.275 210.806 11.0907 210.358 10.2826C209.91 9.44657 209.001 9.02859 207.629 9.02859C206.481 9.02859 205.46 9.36298 204.564 10.0318C203.668 10.7005 202.968 11.6201 202.464 12.7905C201.988 13.933 201.751 15.2148 201.751 16.636V25.9154C201.751 27.0579 201.947 27.8521 202.338 28.2979C202.758 28.7159 203.486 28.9249 204.522 28.9249V29.8027C202.17 29.6912 200.603 29.6355 199.819 29.6355C199.035 29.6355 197.356 29.6912 194.781 29.8027V28.9249C195.956 28.9249 196.782 28.7159 197.258 28.2979C197.734 27.8521 197.972 27.0579 197.972 25.9154V12.8323C197.972 11.5505 197.734 10.6169 197.258 10.0318C196.782 9.44658 195.956 9.15398 194.781 9.15398V8.2762C195.676 8.3598 196.544 8.4016 197.384 8.4016C199.147 8.4016 200.603 8.20654 201.751 7.81642V12.7487C202.45 10.9653 203.416 9.68344 204.648 8.90319C205.907 8.09507 207.321 7.69102 208.889 7.69102Z" fill="black"/>
<path d="M111.24 22.3363C109.942 21.1334 108.471 20.446 105.789 19.7587C104.059 19.3291 101.81 19.1572 99.3006 19.1572C95.0613 19.2431 90.1299 19.9305 85.7176 21.1334C73.7783 24.3125 61.147 32.1314 58.1189 38.1459C57.2538 39.7784 57.1672 40.5517 57.8594 41.3249C58.465 42.0123 59.6762 41.9264 59.5032 41.1531C59.0706 39.3488 59.5897 38.3177 62.1852 35.5682C66.4245 31.0144 76.1143 25.6013 84.4198 23.1096C90.0434 21.3912 93.5906 20.8757 99.3871 20.8757C104.059 20.8757 104.665 20.9616 106.395 21.4771C108.904 22.2504 109.856 22.8518 110.634 24.1407C111.499 25.6013 111.326 27.1479 110.029 29.296C106.395 35.3964 95.5804 42.8715 82.9491 48.0268C80.4401 49.0579 78.1907 49.9171 77.9311 49.9171C77.412 49.9171 77.8446 49.0579 82.8626 40.7235C84.9389 37.2866 87.794 32.9047 89.1782 31.0144C91.7737 27.4916 92.1198 26.6324 90.822 26.6324C90.2164 26.6324 89.6973 27.1479 87.967 29.3819C85.458 32.561 81.2187 39.2628 77.5851 45.7069C76.2008 48.1987 74.9031 50.3467 74.6435 50.4326C74.384 50.5185 73.6053 50.6904 72.9132 50.8622C72.2211 51.0341 71.5289 51.3778 71.4424 51.6355C71.1829 52.237 71.7885 52.8384 72.6536 52.8384C73.0862 52.8384 73.4323 52.9243 73.4323 53.0103C73.4323 53.0962 72.5671 54.9864 71.4424 57.2204C70.3177 59.4544 69.4525 61.3446 69.4525 61.5165C69.4525 61.6883 68.3278 62.2038 66.9436 62.7194C63.1369 64.18 60.3683 65.7266 57.7728 67.8747C55.0908 70.0227 53.7931 71.827 53.5336 73.8032C53.274 76.1231 55.0908 77.8415 58.465 78.443C60.2818 78.7867 62.7043 78.6148 65.9054 77.8415C79.0558 74.8343 89.0917 68.2183 92.3793 60.3995C93.158 58.5092 93.158 55.8457 92.3793 54.5568C91.1681 52.5806 87.794 50.7763 84.3333 50.3467C83.6412 50.2608 83.1221 50.0889 83.1221 50.003C83.1221 49.9171 84.5064 49.3156 86.1502 48.6283C100.685 42.6138 112.538 32.9906 112.97 26.8902C113.143 24.828 112.711 23.6251 111.413 22.4222L111.24 22.3363ZM87.3614 52.7525C91.5142 54.385 92.1198 57.0486 89.3513 61.6883C85.3715 68.3902 74.6435 74.5765 63.0503 76.7246C60.8009 77.1542 59.7627 77.1542 58.1189 76.8105C56.7347 76.4668 55.4369 75.2639 55.4369 74.3188C55.4369 72.2566 58.7245 68.7339 62.8773 66.414C64.7807 65.297 68.0683 63.8363 68.5009 63.8363C68.5874 63.8363 68.7604 64.18 68.8469 64.6096C69.1065 65.5548 69.7121 66.0703 70.4907 65.8985C70.9233 65.8125 71.0098 65.5548 70.9233 64.7815C70.7503 62.9771 71.0098 62.7194 73.4323 61.8602C77.1525 60.5713 80.7862 59.7121 82.776 59.6262C84.2468 59.6262 84.6794 59.5403 84.7659 59.1966C85.112 57.9078 81.3918 57.9937 76.0278 59.4544C73.9514 59.9699 72.2211 60.3995 72.1345 60.3995C72.048 60.3136 74.384 55.6738 75.6817 53.4399C76.5469 51.8074 76.8929 51.6355 79.4884 51.3778C79.921 51.2918 80.3536 51.2918 80.8727 51.2918C83.0356 51.2918 85.5446 51.7214 87.4479 52.4947L87.3614 52.7525Z" fill="black"/>
<path d="M121.487 51.3778C121.228 51.3778 118.978 53.1821 117.681 54.1272C115.777 55.502 112.749 57.7359 111.797 58.3374C107.904 60.7432 104.53 61.5165 103.232 60.3136C102.367 59.5403 102.54 56.8767 103.665 53.7835C104.53 51.4637 104.617 51.2918 105.655 50.9481C106.26 50.7763 107.645 50.0889 108.769 49.4875C118.892 43.7307 125.727 34.4512 121.66 31.9595C121.228 31.7018 120.968 31.6158 120.709 31.6158C120.449 31.6158 120.103 31.7018 119.411 31.8736C115.518 33.0765 109.289 39.2628 105.222 45.9647C101.243 52.4947 99.6852 57.3922 100.723 59.9699C101.156 60.915 102.108 61.8602 102.973 62.1179C105.136 62.8053 108.423 62.032 112.403 59.798C114.479 58.5951 118.546 55.502 120.795 53.4399C121.574 52.6666 122.093 52.151 122.093 51.9792C122.006 51.7214 121.747 51.4637 121.487 51.4637V51.3778ZM107.904 45.0196C111.105 40.208 116.815 34.5372 119.67 33.3343C120.103 33.1624 120.363 33.0765 120.536 33.0765C120.709 33.0765 120.795 33.1624 120.882 33.4202C121.314 34.5372 119.584 37.8881 117.248 40.3798C115.258 42.5278 111.797 45.3633 108.856 47.2535C107.385 48.1987 106.001 48.972 105.828 48.972C105.482 48.972 106.433 47.1676 107.904 44.9336V45.0196Z" fill="black"/>
<path d="M140.678 51.5496C140.246 51.0341 139.381 51.4637 137.131 52.8384C133.324 55.1583 129.691 56.1893 126.836 56.1893H125.452L125.884 54.9864C126.663 53.0103 126.49 51.9792 125.105 50.6904C124.673 50.3467 123.981 50.1749 123.289 50.1749C122.596 50.1749 121.904 50.3467 121.385 50.6904C120.953 50.9481 120.434 51.2059 120.174 51.2918C119.914 51.3778 119.136 52.151 118.444 53.0103C115.675 56.3612 115.156 59.3684 117.146 60.8291C118.271 61.6024 119.222 61.6883 120.78 61.1728C121.904 60.8291 124.24 58.9388 124.5 58.2515C124.673 57.9078 125.019 57.8219 126.49 57.8219C130.037 57.8219 133.498 56.9626 137.996 54.385C140.419 53.0103 141.111 52.151 140.765 51.7214L140.678 51.5496ZM122.164 58.3374C121.818 58.767 121.039 59.3684 120.434 59.6262C119.049 60.3136 118.444 60.3136 118.011 59.5403C117.579 58.767 117.838 57.65 118.79 56.0175L119.482 54.8146L120.174 55.7597C120.52 56.2753 121.385 56.7908 121.991 57.2204L122.77 57.65L122.164 58.3374ZM124.154 54.5568C123.981 55.2442 123.721 55.9316 123.548 56.0175C123.375 56.1034 122.856 55.9316 122.337 55.5879C121.645 55.0724 121.385 54.7287 121.385 54.1272C121.385 53.1821 122.337 52.0651 123.202 51.9792C123.289 51.9792 123.375 51.9792 123.462 51.9792C124.327 52.0651 124.586 52.9243 124.24 54.5568H124.154Z" fill="black"/>
<path d="M162.3 51.3778C162.3 51.3778 162.213 51.3778 162.127 51.3778C161.781 51.3778 160.829 51.6355 159.618 52.0651C157.542 52.8384 156.157 53.3539 153.735 54.5568C151.485 55.6738 151.139 55.7597 151.312 55.2442C151.399 54.9005 151.572 53.9554 151.658 53.0962C151.832 51.7214 151.745 51.4637 151.139 51.0341C150.188 50.2608 149.236 50.3467 147.16 51.4637C145.602 52.3229 145.343 52.4088 145.17 52.0651C145.083 51.8074 144.651 51.3778 144.218 51.0341C143.526 50.5185 143.18 50.4326 141.882 50.5185C140.584 50.6045 140.238 50.7763 138.595 52.237C134.788 55.502 133.317 60.0558 135.913 60.5713C137.383 60.915 138.768 60.1417 143.526 56.2753C147.852 52.8384 149.323 51.8933 149.842 52.3229C149.928 52.4088 149.582 53.6117 149.063 54.9864C148.198 57.2204 147.938 57.5641 146.814 58.2515C144.478 59.6262 139.979 62.5475 136.864 64.7815C130.029 69.679 127.001 73.8892 128.991 75.6076C130.549 76.9823 134.355 75.7794 138.335 72.6003C141.45 70.1086 144.564 66.5858 147.333 62.3757C148.457 60.6573 149.582 59.0248 149.842 58.6811C150.361 57.9078 152.005 56.9626 157.715 54.4709C158.839 53.9554 159.791 53.5258 160.483 53.1821C162.56 52.151 162.906 51.6355 162.127 51.2918L162.3 51.3778ZM140.757 56.3612C136.518 59.798 135.913 59.9699 137.124 57.3922C137.989 55.5879 140.325 53.0103 141.623 52.4088C142.228 52.151 142.488 52.0651 142.661 52.0651C142.834 52.0651 142.92 52.151 143.093 52.4088C143.353 52.6666 143.699 53.0103 143.872 53.1821C144.045 53.3539 143.007 54.385 140.671 56.2753L140.757 56.3612ZM142.834 64.6956C139.892 68.6479 136.086 72.1707 133.144 73.7173C132.452 74.061 131.5 74.4047 131.068 74.4906C130.289 74.6624 130.202 74.5765 130.202 73.8892C130.202 72.0848 135.047 67.6169 141.623 63.2349C143.872 61.7742 145.083 60.915 145.343 60.915C145.602 60.915 144.651 62.032 142.747 64.5237L142.834 64.6956Z" fill="black"/>
</svg>
