<svg width="27" height="27" viewBox="0 0 27 27" fill="none" xmlns="http://www.w3.org/2000/svg">
<path d="M13.5 0C6.04336 0 0 6.04336 0 13.5C0 19.2217 3.55957 24.1049 8.57988 26.0719C8.46387 25.0014 8.35313 23.3666 8.62734 22.2012C8.8752 21.1465 10.2094 15.4934 10.2094 15.4934C10.2094 15.4934 9.80332 14.6865 9.80332 13.4895C9.80332 11.6121 10.8896 10.2094 12.2449 10.2094C13.3945 10.2094 13.9535 11.0742 13.9535 12.1131C13.9535 13.2732 13.2152 15.0029 12.8355 16.6061C12.5191 17.9508 13.5105 19.0477 14.8342 19.0477C17.2336 19.0477 19.0793 16.5164 19.0793 12.8672C19.0793 9.63457 16.759 7.37227 13.442 7.37227C9.60293 7.37227 7.3459 10.2516 7.3459 13.2311C7.3459 14.3912 7.79414 15.6357 8.35312 16.3107C8.46387 16.4426 8.47969 16.5639 8.44805 16.6957C8.34785 17.1229 8.11582 18.0404 8.07363 18.225C8.01562 18.4729 7.87852 18.5256 7.62012 18.4043C5.93262 17.6186 4.87793 15.1559 4.87793 13.173C4.87793 8.91211 7.97344 5.00449 13.7953 5.00449C18.4781 5.00449 22.1168 8.34258 22.1168 12.8039C22.1168 17.4551 19.1848 21.1992 15.1137 21.1992C13.7479 21.1992 12.4611 20.4873 12.0182 19.6488C12.0182 19.6488 11.3432 22.2275 11.1797 22.8604C10.8738 24.0311 10.0512 25.5023 9.50273 26.3988C10.7684 26.7891 12.1078 27 13.5 27C20.9566 27 27 20.9566 27 13.5C27 6.04336 20.9566 0 13.5 0Z" fill="#FFFFFF"/>
</svg>
