<svg width="23" height="23" viewBox="0 0 23 23" fill="none" xmlns="http://www.w3.org/2000/svg">
<path fill-rule="evenodd" clip-rule="evenodd" d="M4.40965 10.7566C4.40965 7.25128 7.25128 4.40965 10.7566 4.40965C14.2619 4.40965 17.1035 7.25128 17.1035 10.7566C17.1035 14.2619 14.2619 17.1035 10.7566 17.1035C7.25128 17.1035 4.40965 14.2619 4.40965 10.7566ZM10.7566 2.93799C6.4385 2.93799 2.93799 6.4385 2.93799 10.7566C2.93799 15.0747 6.4385 18.5752 10.7566 18.5752C12.6507 18.5752 14.3874 17.9017 15.7405 16.7811L19.3422 20.3828C19.6296 20.6702 20.0955 20.6702 20.3828 20.3828C20.6702 20.0955 20.6702 19.6296 20.3828 19.3422L16.7811 15.7405C17.9017 14.3875 18.5752 12.6507 18.5752 10.7566C18.5752 6.4385 15.0747 2.93799 10.7566 2.93799Z" fill="white"/>
</svg>
