<svg width="23" height="23" viewBox="0 0 23 23" fill="none" xmlns="http://www.w3.org/2000/svg">
<path fill-rule="evenodd" clip-rule="evenodd" d="M4.40959 10.7561C4.40959 7.25079 7.25122 4.40916 10.7565 4.40916C14.2619 4.40916 17.1035 7.25079 17.1035 10.7561C17.1035 14.2614 14.2619 17.1031 10.7565 17.1031C7.25122 17.1031 4.40959 14.2614 4.40959 10.7561ZM10.7565 2.9375C6.43844 2.9375 2.93793 6.43801 2.93793 10.7561C2.93793 15.0742 6.43844 18.5747 10.7565 18.5747C12.6506 18.5747 14.3874 17.9012 15.7404 16.7806L19.3421 20.3823C19.6295 20.6697 20.0954 20.6697 20.3828 20.3823C20.6701 20.095 20.6701 19.6291 20.3828 19.3417L16.7811 15.74C17.9016 14.387 18.5751 12.6502 18.5751 10.7561C18.5751 6.43801 15.0746 2.9375 10.7565 2.9375Z" fill="black"/>
</svg>
