<svg width="16" height="17" viewBox="0 0 16 17" fill="none" xmlns="http://www.w3.org/2000/svg">
<g clip-path="url(#clip0_411_11456)">
<path d="M5.03344 15.4063C11.0697 15.4063 14.3722 10.0914 14.3722 5.48385C14.3722 5.33443 14.3691 5.1817 14.3628 5.03229C15.0052 4.53865 15.5597 3.92721 16 3.2267C15.4017 3.50954 14.7664 3.69426 14.1159 3.77455C14.8009 3.33834 15.3137 2.65307 15.5594 1.84578C14.915 2.25151 14.2104 2.53771 13.4756 2.69213C12.9806 2.13322 12.326 1.76315 11.6131 1.63915C10.9003 1.51515 10.1688 1.64411 9.53183 2.0061C8.89486 2.36809 8.38787 2.94295 8.08923 3.64179C7.7906 4.34064 7.71695 5.12455 7.87969 5.87232C6.575 5.80276 5.29862 5.44265 4.13332 4.81535C2.96802 4.18805 1.9398 3.30755 1.11531 2.23094C0.696266 2.99858 0.568038 3.90695 0.756687 4.77143C0.945337 5.63591 1.43671 6.39164 2.13094 6.88502C1.60975 6.86744 1.09998 6.71835 0.64375 6.45006V6.49322C0.643283 7.2988 0.905399 8.0797 1.38554 8.70316C1.86568 9.32662 2.53422 9.75418 3.2775 9.91315C2.7947 10.0535 2.28799 10.0739 1.79656 9.97291C2.0063 10.6657 2.41438 11.2717 2.96385 11.7062C3.51331 12.1407 4.17675 12.3821 4.86156 12.3967C3.69895 13.3671 2.26278 13.8934 0.784375 13.8909C0.522191 13.8905 0.260266 13.8734 0 13.8397C1.5019 14.8635 3.24902 15.4073 5.03344 15.4063Z" fill="#FFFFFF"/>
</g>
<defs>
<clipPath id="clip0_411_11456">
<rect width="16" height="17" fill="white"/>
</clipPath>
</defs>
</svg>
