<svg width="28" height="25" viewBox="0 0 28 25" fill="none" xmlns="http://www.w3.org/2000/svg">
<path d="M11.2487 4.9024C11.9489 4.60876 12.2426 3.77302 11.9263 3.09538L10.8195 0.768847C10.5033 0.114028 9.73532 -0.179839 9.05769 0.114028C7.13773 0.927187 5.48882 1.98881 4.17873 3.27631C2.575 4.78947 1.49079 6.52872 0.90351 8.44868C0.316228 10.3915 0 13.034 0 16.3996V23.334C0 24.0794 0.609869 24.6893 1.35526 24.6893H10.2322C10.9776 24.6893 11.5875 24.0794 11.5875 23.334V14.457C11.5875 13.7114 10.9776 13.1018 10.2322 13.1018H5.98575C6.03093 10.8202 6.57303 8.99079 7.5669 7.61271C8.38005 6.50636 9.59979 5.60285 11.2487 4.9024Z" fill="#8F90A6"/>
<path d="M27.1958 4.90218C27.8961 4.60854 28.1895 3.77279 27.8735 3.09516L26.7667 0.791432C26.4504 0.136388 25.6825 -0.157253 25.0048 0.136388C23.1075 0.949547 21.4809 2.01117 20.1485 3.27608C18.5445 4.81205 17.4379 6.55131 16.8504 8.47127C16.2631 10.3684 15.9697 13.0114 15.9697 16.3996V23.334C15.9697 24.0794 16.5796 24.6893 17.325 24.6893H26.202C26.9474 24.6893 27.5572 24.0794 27.5572 23.334V14.457C27.5572 13.7114 26.9474 13.1018 26.202 13.1018H21.9329C21.9781 10.8202 22.5204 8.99079 23.514 7.61271C24.3272 6.50613 25.5469 5.60262 27.1958 4.90218Z" fill="#8F90A6"/>
</svg>
