<svg width="22" height="22" viewBox="0 0 22 22" fill="none" xmlns="http://www.w3.org/2000/svg">
<g clip-path="url(#clip0_402_15544)">
<path d="M20.3715 0.5H1.62422C0.726172 0.5 0 1.17676 0 2.01348V19.9824C0 20.8191 0.726172 21.5 1.62422 21.5H20.3715C21.2695 21.5 22 20.8191 22 19.9865V2.01348C22 1.17676 21.2695 0.5 20.3715 0.5ZM6.52695 18.3951H3.26133V8.3709H6.52695V18.3951ZM4.89414 7.00508C3.8457 7.00508 2.99922 6.19707 2.99922 5.20039C2.99922 4.20371 3.8457 3.3957 4.89414 3.3957C5.93828 3.3957 6.78477 4.20371 6.78477 5.20039C6.78477 6.19297 5.93828 7.00508 4.89414 7.00508ZM18.7473 18.3951H15.4859V13.5225C15.4859 12.3617 15.4645 10.8646 13.7887 10.8646C12.0914 10.8646 11.8336 12.132 11.8336 13.4404V18.3951H8.57656V8.3709H11.7047V9.74082H11.7477C12.1816 8.95332 13.2473 8.1207 14.8328 8.1207C18.1371 8.1207 18.7473 10.1961 18.7473 12.8949V18.3951Z" fill="#333333"/>
</g>
<defs>
<clipPath id="clip0_402_15544">
<rect width="22" height="21" fill="white" transform="translate(0 0.5)"/>
</clipPath>
</defs>
</svg>
