<svg width="216" height="30" viewBox="0 0 216 30" fill="none" xmlns="http://www.w3.org/2000/svg">
<g clip-path="url(#clip0_346_7211)">
<path d="M13.8107 0L23.789 25.9748C24.0375 26.7911 24.5316 27.5117 25.2046 28.039C25.6308 28.3527 26.1296 28.5538 26.6547 28.6239V29.4495C25.9763 29.4089 25.2961 29.4089 24.6176 29.4495H19.1969C18.438 29.4051 17.6771 29.4051 16.9182 29.4495V28.6239C17.8714 28.6866 18.8185 28.4325 19.6113 27.9014C19.991 27.4541 19.8875 26.5596 19.335 25.1491L11.6356 4.50688L12.2916 3.99083L5.10997 22.7408C4.61429 23.8238 4.33293 24.992 4.28133 26.1812C4.26335 26.535 4.34023 26.8872 4.50406 27.2016C4.6679 27.516 4.91278 27.7813 5.21356 27.9702C6.04106 28.3713 6.95205 28.5717 7.87212 28.555V29.3807C7.11253 29.3807 6.28389 29.3807 5.45524 29.3807H1.34655C0.898454 29.344 0.448093 29.344 0 29.3807L0 28.6239C0.645849 28.4003 1.22678 28.0223 1.69182 27.5229C2.47317 26.8393 3.07725 25.9777 3.45269 25.0115L13.0166 0H13.8107ZM18.7136 17.5459V18.3716H6.38747L6.90537 17.5459H18.7136Z" fill="#231F20"/>
<path d="M62.1489 0.206543V1.03223C61.4258 1.02379 60.7088 1.16434 60.0428 1.44507C59.8019 1.56661 59.5887 1.73624 59.4165 1.94339C59.2442 2.15054 59.1166 2.39079 59.0415 2.6492C58.8683 3.41675 58.7872 4.20206 58.7998 4.98865V17.4084C58.8297 19.1022 58.7025 20.7952 58.42 22.4657C58.2096 23.7726 57.7652 25.0311 57.108 26.1813C56.3674 27.3674 55.3172 28.3307 54.0696 28.968C52.6585 29.6796 51.0933 30.0341 49.5121 30.0001C48.2435 30.0126 46.9787 29.8623 45.7486 29.5529C44.5656 29.2263 43.477 28.625 42.5722 27.7983C41.8198 27.0836 41.1796 26.2602 40.6732 25.3556C40.1853 24.3728 39.87 23.3139 39.741 22.2249C39.5575 20.6722 39.4768 19.1092 39.4993 17.546V4.57581C39.5352 3.82243 39.4537 3.06805 39.2576 2.33957C39.1854 2.10982 39.0604 1.90001 38.8926 1.72682C38.7248 1.55362 38.5187 1.42181 38.2909 1.34186C37.6179 1.14425 36.9208 1.04005 36.2192 1.03223V0.206543H38.498L41.4328 0.344158H44.333H46.7154V1.03223C45.9907 1.03363 45.2699 1.13789 44.5747 1.34186C44.3468 1.42181 44.1408 1.55362 43.973 1.72682C43.8051 1.90001 43.6802 2.10982 43.608 2.33957C43.4119 3.06805 43.3303 3.82243 43.3663 4.57581V18.3373C43.3528 20.0662 43.4915 21.793 43.7806 23.4978C43.9701 24.9145 44.5976 26.2372 45.576 27.2822C46.167 27.7868 46.8532 28.1685 47.5944 28.4048C48.3356 28.6411 49.1167 28.7274 49.8919 28.6584C51.6257 28.7761 53.3467 28.2896 54.7602 27.2822C55.949 26.2945 56.7948 24.9581 57.177 23.4634C57.6516 21.679 57.8839 19.8392 57.8676 17.9932V4.98865C57.8978 4.19147 57.7687 3.39625 57.4878 2.6492C57.384 2.37981 57.2265 2.1342 57.0247 1.92723C56.8229 1.72026 56.5811 1.55623 56.3139 1.44507C55.6197 1.1781 54.8828 1.03824 54.1387 1.03223V0.206543H56.1067H58.3855H60.5261H62.1489Z" fill="#231F20"/>
<path d="M96.6755 0.206543C96.6755 1.23865 96.6755 2.27076 96.4683 3.23407C96.2611 4.19737 96.4683 4.95425 96.4683 5.50471C96.4683 6.05517 96.4683 6.77764 96.4683 7.36251C96.4683 7.94737 96.4683 8.42902 96.4683 8.87627H95.5361C95.4075 7.33066 95.1418 5.79944 94.742 4.30058C94.485 3.31283 93.87 2.45491 93.0156 1.89232C91.7861 1.32351 90.4318 1.07493 89.0795 1.16985H86.8353V24.6331C86.7986 25.4704 86.9037 26.3078 87.146 27.1102C87.2491 27.3834 87.4154 27.6286 87.6314 27.8259C87.8473 28.0231 88.1069 28.1669 88.389 28.2455C89.248 28.463 90.1275 28.5899 91.0131 28.624V29.4497C90.3225 29.4497 89.3903 29.4497 88.2854 29.4497H81.3801C80.2752 29.4497 79.412 29.4497 78.7215 29.4497V28.624C79.6186 28.592 80.5098 28.4652 81.3801 28.2455C81.706 28.2035 82.015 28.0763 82.2757 27.8769C82.5364 27.6776 82.7396 27.413 82.8647 27.1102C83.0031 26.2903 83.0031 25.4531 82.8647 24.6331V1.16985H80.6205C79.3023 1.08502 77.984 1.33354 76.788 1.89232C76.35 2.15864 75.969 2.50844 75.6668 2.92168C75.3646 3.33493 75.1473 3.8035 75.0271 4.30058C74.6273 5.79944 74.3615 7.33066 74.233 8.87627H73.2662C73.3042 8.37239 73.3042 7.86639 73.2662 7.36251C73.2662 6.77764 73.2662 6.15838 73.2662 5.50471C73.2662 4.85104 73.2662 4.23177 73.2662 3.23407C73.2662 2.23636 73.2662 1.23865 73.0591 0.206543H76.8225H80.9657H88.4926H92.6013H96.6755Z" fill="#231F20"/>
<path d="M133.619 0.206543V1.03223C132.885 1.02491 132.157 1.16532 131.479 1.44507C131.242 1.56691 131.033 1.73709 130.867 1.94456C130.7 2.15202 130.579 2.39211 130.512 2.6492C130.322 3.41386 130.24 4.2014 130.27 4.98865V17.4084C130.283 19.1017 130.156 20.7931 129.891 22.4657C129.68 23.7726 129.236 25.0311 128.579 26.1813C127.829 27.3599 126.781 28.321 125.54 28.968C124.129 29.6796 122.564 30.0341 120.983 30.0001C119.703 30.0103 118.427 29.8601 117.185 29.5529C115.98 29.2278 114.869 28.627 113.939 27.7983C113.195 27.0844 112.566 26.2605 112.075 25.3556C111.587 24.3728 111.271 23.3139 111.142 22.2249C110.959 20.6722 110.878 19.1092 110.901 17.546V4.57581C110.929 3.82049 110.836 3.06554 110.625 2.33957C110.557 2.10721 110.434 1.89477 110.266 1.72084C110.097 1.54691 109.888 1.41679 109.658 1.34186C108.985 1.1416 108.288 1.03735 107.586 1.03223V0.206543H109.865H112.903H115.769H118.151V1.03223C117.438 1.03311 116.729 1.13741 116.045 1.34186C115.812 1.41966 115.601 1.55025 115.427 1.72337C115.253 1.8965 115.122 2.10743 115.044 2.33957C114.865 3.07116 114.784 3.82305 114.802 4.57581V18.3373C114.789 20.0662 114.927 21.793 115.217 23.4978C115.427 24.9082 116.052 26.2249 117.012 27.2822C117.61 27.7862 118.303 28.1672 119.049 28.4034C119.796 28.6396 120.582 28.7262 121.362 28.6584C123.096 28.7761 124.817 28.2896 126.231 27.2822C127.409 26.2911 128.242 24.9546 128.613 23.4634C129.106 21.6826 129.339 19.8402 129.304 17.9932V4.98865C129.343 4.19385 129.226 3.39905 128.958 2.6492C128.731 2.10473 128.296 1.67194 127.75 1.44507C127.044 1.17765 126.296 1.03785 125.54 1.03223V0.206543H127.508H129.752H131.893H133.619Z" fill="#231F20"/>
<path d="M177.778 0.206543V1.03223C177.054 1.03363 176.333 1.13789 175.638 1.34186C175.41 1.42181 175.204 1.55362 175.036 1.72682C174.868 1.90001 174.743 2.10982 174.671 2.33957C174.475 3.06805 174.393 3.82243 174.429 4.57581V25.218C174.393 25.9714 174.475 26.7258 174.671 27.4542C174.738 27.6866 174.861 27.899 175.03 28.073C175.198 28.2469 175.407 28.377 175.638 28.452C176.334 28.6534 177.053 28.7689 177.778 28.796V29.6217C176.985 29.5795 176.19 29.5795 175.396 29.6217H169.492C168.733 29.579 167.972 29.579 167.213 29.6217V28.624C167.938 28.5969 168.657 28.4814 169.354 28.2799C169.585 28.205 169.793 28.0749 169.962 27.901C170.13 27.727 170.254 27.5146 170.321 27.2822C170.517 26.5537 170.598 25.7994 170.562 25.046V2.33957H170.735L160.584 29.5185H159.928L149.501 2.85563V24.6331C149.471 25.4204 149.552 26.2079 149.743 26.9726C149.827 27.2416 149.97 27.4889 150.161 27.6969C150.352 27.905 150.586 28.0688 150.847 28.1767C151.622 28.4605 152.439 28.6117 153.264 28.624V29.4497C152.609 29.4067 151.952 29.4067 151.296 29.4497H146.946C146.36 29.4069 145.771 29.4069 145.185 29.4497V28.624C145.92 28.6059 146.645 28.4543 147.326 28.1767C147.597 28.0798 147.842 27.9202 148.04 27.7109C148.238 27.5016 148.384 27.2486 148.465 26.9726C148.575 26.1966 148.575 25.4091 148.465 24.6331V4.57581C148.58 3.83483 148.58 3.08055 148.465 2.33957C148.393 2.10982 148.268 1.90001 148.1 1.72682C147.932 1.55362 147.726 1.42181 147.498 1.34186C146.748 1.12105 145.968 1.01662 145.185 1.03223V0.206543H146.946H149.018H150.917H152.539L161.965 24.9084L161.24 25.218L170.562 0.344158H172.634H175.5L177.778 0.206543Z" fill="#231F20"/>
<path d="M216 0.206543V1.03223C215.266 1.02102 214.537 1.16159 213.859 1.44508C213.618 1.56125 213.406 1.72967 213.239 1.93802C213.072 2.14637 212.953 2.38936 212.893 2.6492C212.688 3.41168 212.595 4.19965 212.616 4.98865V29.6561H211.684L194.421 2.85563V24.6332C194.382 25.4228 194.475 26.2135 194.697 26.9726C194.769 27.2426 194.903 27.4922 195.089 27.7013C195.274 27.9104 195.507 28.0732 195.767 28.1767C196.542 28.4605 197.359 28.6117 198.184 28.624V29.4497C197.529 29.4057 196.871 29.4057 196.216 29.4497H191.728C191.141 29.4091 190.553 29.4091 189.967 29.4497V28.624C190.702 28.6059 191.427 28.4543 192.107 28.1767C192.347 28.0586 192.558 27.8895 192.725 27.6815C192.892 27.4735 193.011 27.2315 193.074 26.9726C193.276 26.2096 193.369 25.422 193.35 24.6332V4.57581C193.386 3.82243 193.305 3.06805 193.109 2.33957C193.037 2.10982 192.912 1.90001 192.744 1.72682C192.576 1.55362 192.37 1.42182 192.142 1.34186C191.414 1.12795 190.657 1.02359 189.898 1.03223V0.206543H191.659H193.765H195.491H196.976L211.615 22.6721V4.98865C211.637 4.19965 211.544 3.41168 211.339 2.6492C211.256 2.3845 211.118 2.14032 210.933 1.93276C210.749 1.7252 210.522 1.55898 210.269 1.44508C209.494 1.16489 208.676 1.02507 207.852 1.03223V0.206543H209.82H212.064H214.205H216Z" fill="#231F20"/>
<path d="M8.625 0.206543L0 19.2947V0.206543H8.625Z" fill="#99521F"/>
</g>
<defs>
<clipPath id="clip0_346_7211">
<rect width="216" height="30" fill="white"/>
</clipPath>
</defs>
</svg>
