<svg width="216" height="30" viewBox="0 0 216 30" fill="none" xmlns="http://www.w3.org/2000/svg">
<g clip-path="url(#clip0_402_15608)">
<path d="M13.8107 0L23.789 25.9748C24.0375 26.7911 24.5316 27.5117 25.2046 28.039C25.6308 28.3527 26.1296 28.5538 26.6547 28.6239V29.4495C25.9763 29.4089 25.2961 29.4089 24.6176 29.4495H19.1969C18.438 29.4051 17.6771 29.4051 16.9182 29.4495V28.6239C17.8714 28.6866 18.8185 28.4325 19.6113 27.9014C19.991 27.4541 19.8875 26.5596 19.335 25.1491L11.6356 4.50688L12.2916 3.99083L5.10997 22.7408C4.61429 23.8238 4.33293 24.992 4.28133 26.1812C4.26335 26.535 4.34023 26.8872 4.50406 27.2016C4.6679 27.516 4.91278 27.7813 5.21356 27.9702C6.04106 28.3713 6.95205 28.5717 7.87212 28.555V29.3807C7.11253 29.3807 6.28389 29.3807 5.45524 29.3807H1.34655C0.898454 29.344 0.448093 29.344 0 29.3807L0 28.6239C0.645849 28.4003 1.22678 28.0223 1.69182 27.5229C2.47317 26.8393 3.07725 25.9777 3.45269 25.0115L13.0166 0H13.8107ZM18.7136 17.5459V18.3716H6.38747L6.90537 17.5459H18.7136Z" fill="#FFF9F1"/>
<path d="M62.1494 0.207031V1.03272C61.4263 1.02428 60.7093 1.16483 60.0432 1.44556C59.8024 1.5671 59.5892 1.73672 59.4169 1.94388C59.2447 2.15103 59.1171 2.39128 59.042 2.64969C58.8688 3.41723 58.7877 4.20254 58.8003 4.98914V17.4089C58.8302 19.1027 58.703 20.7957 58.4205 22.4662C58.2101 23.7731 57.7657 25.0316 57.1085 26.1818C56.3679 27.3679 55.3177 28.3312 54.0701 28.9685C52.659 29.6801 51.0937 30.0346 49.5126 30.0006C48.244 30.0131 46.9791 29.8628 45.7491 29.5534C44.5661 29.2268 43.4775 28.6255 42.5727 27.7988C41.8203 27.0841 41.1801 26.2607 40.6737 25.3561C40.1858 24.3733 39.8705 23.3144 39.7415 22.2254C39.558 20.6727 39.4773 19.1097 39.4998 17.5465V4.5763C39.5357 3.82292 39.4542 3.06854 39.2581 2.34006C39.1859 2.11031 39.0609 1.9005 38.8931 1.72731C38.7253 1.55411 38.5192 1.4223 38.2913 1.34235C37.6184 1.14473 36.9213 1.04054 36.2197 1.03272V0.207031H38.4985L41.4333 0.344646H44.3335H46.7159V1.03272C45.9912 1.03412 45.2704 1.13837 44.5752 1.34235C44.3473 1.4223 44.1413 1.55411 43.9735 1.72731C43.8056 1.9005 43.6807 2.11031 43.6085 2.34006C43.4124 3.06854 43.3308 3.82292 43.3668 4.5763V18.3378C43.3533 20.0667 43.4919 21.7935 43.7811 23.4983C43.9706 24.915 44.5981 26.2377 45.5765 27.2827C46.1674 27.7873 46.8537 28.169 47.5949 28.4053C48.3361 28.6416 49.1172 28.7278 49.8924 28.6589C51.6262 28.7766 53.3472 28.2901 54.7606 27.2827C55.9495 26.295 56.7953 24.9586 57.1775 23.4639C57.6521 21.6795 57.8844 19.8397 57.8681 17.9937V4.98914C57.8983 4.19195 57.7692 3.39673 57.4883 2.64969C57.3845 2.3803 57.227 2.13469 57.0252 1.92771C56.8234 1.72074 56.5816 1.55672 56.3143 1.44556C55.6201 1.17859 54.8833 1.03873 54.1392 1.03272V0.207031H56.1072H58.386H60.5266H62.1494Z" fill="#FFF9F1"/>
<path d="M96.6759 0.207031C96.6759 1.23914 96.6759 2.27125 96.4688 3.23455C96.2616 4.19786 96.4688 4.95474 96.4688 5.5052C96.4688 6.05566 96.4688 6.77813 96.4688 7.363C96.4688 7.94786 96.4688 8.42951 96.4688 8.87676H95.5366C95.408 7.33115 95.1423 5.79993 94.7424 4.30107C94.4855 3.31332 93.8705 2.45539 93.0161 1.89281C91.7866 1.324 90.4323 1.07541 89.08 1.17033H86.8358V24.6336C86.7991 25.4708 86.9042 26.3082 87.1465 27.1107C87.2496 27.3839 87.4159 27.6291 87.6319 27.8264C87.8478 28.0236 88.1074 28.1674 88.3895 28.246C89.2484 28.4635 90.128 28.5903 91.0135 28.6245V29.4502C90.323 29.4502 89.3908 29.4502 88.2859 29.4502H81.3805C80.2757 29.4502 79.4125 29.4502 78.722 29.4502V28.6245C79.6191 28.5925 80.5103 28.4657 81.3805 28.246C81.7065 28.204 82.0155 28.0768 82.2762 27.8774C82.5369 27.678 82.7401 27.4135 82.8652 27.1107C83.0036 26.2908 83.0036 25.4536 82.8652 24.6336V1.17033H80.621C79.3028 1.08551 77.9845 1.33403 76.7885 1.89281C76.3504 2.15913 75.9695 2.50892 75.6673 2.92217C75.3651 3.33541 75.1478 3.80399 75.0276 4.30107C74.6278 5.79993 74.362 7.33115 74.2335 8.87676H73.2667C73.3047 8.37288 73.3047 7.86687 73.2667 7.363C73.2667 6.77813 73.2667 6.15887 73.2667 5.5052C73.2667 4.85153 73.2667 4.23226 73.2667 3.23455C73.2667 2.23685 73.2667 1.23914 73.0596 0.207031H76.823H80.9662H88.4931H92.6018H96.6759Z" fill="#FFF9F1"/>
<path d="M133.619 0.207031V1.03272C132.885 1.02539 132.157 1.16581 131.479 1.44556C131.242 1.56739 131.033 1.73758 130.866 1.94505C130.7 2.15251 130.579 2.3926 130.512 2.64969C130.321 3.41434 130.24 4.20189 130.27 4.98914V17.4089C130.282 19.1022 130.155 20.7936 129.89 22.4662C129.68 23.7731 129.236 25.0316 128.578 26.1818C127.829 27.3604 126.781 28.3215 125.54 28.9685C124.129 29.6801 122.564 30.0346 120.982 30.0006C119.703 30.0108 118.427 29.8605 117.184 29.5534C115.98 29.2283 114.869 28.6275 113.939 27.7988C113.195 27.0849 112.566 26.261 112.074 25.3561C111.587 24.3733 111.271 23.3144 111.142 22.2254C110.959 20.6727 110.878 19.1097 110.901 17.5465V4.5763C110.929 3.82098 110.835 3.06603 110.624 2.34006C110.557 2.1077 110.434 1.89526 110.266 1.72133C110.097 1.5474 109.888 1.41728 109.658 1.34235C108.985 1.14209 108.288 1.03784 107.586 1.03272V0.207031H109.865H112.903H115.769H118.151V1.03272C117.438 1.03359 116.728 1.1379 116.045 1.34235C115.812 1.42015 115.6 1.55074 115.427 1.72386C115.253 1.89699 115.122 2.10791 115.044 2.34006C114.865 3.07165 114.784 3.82354 114.802 4.5763V18.3378C114.789 20.0667 114.927 21.7935 115.216 23.4983C115.427 24.9087 116.052 26.2254 117.012 27.2827C117.61 27.7867 118.302 28.1677 119.049 28.4039C119.796 28.6401 120.582 28.7267 121.362 28.6589C123.096 28.7766 124.817 28.2901 126.23 27.2827C127.408 26.2915 128.242 24.9551 128.613 23.4639C129.106 21.6831 129.339 19.8407 129.303 17.9937V4.98914C129.343 4.19434 129.225 3.39954 128.958 2.64969C128.73 2.10522 128.296 1.67243 127.75 1.44556C127.044 1.17814 126.295 1.03834 125.54 1.03272V0.207031H127.508H129.752H131.893H133.619Z" fill="#FFF9F1"/>
<path d="M177.778 0.207031V1.03272C177.053 1.03412 176.332 1.13837 175.637 1.34235C175.409 1.4223 175.203 1.55411 175.035 1.72731C174.868 1.9005 174.743 2.11031 174.671 2.34006C174.474 3.06854 174.393 3.82292 174.429 4.5763V25.2185C174.393 25.9719 174.474 26.7263 174.671 27.4547C174.738 27.6871 174.861 27.8995 175.029 28.0735C175.198 28.2474 175.407 28.3775 175.637 28.4524C176.334 28.6539 177.053 28.7694 177.778 28.7965V29.6222C176.984 29.5799 176.189 29.5799 175.396 29.6222H169.491C168.732 29.5795 167.972 29.5795 167.213 29.6222V28.6245C167.938 28.5974 168.657 28.4819 169.353 28.2804C169.584 28.2055 169.793 28.0754 169.961 27.9014C170.13 27.7275 170.253 27.5151 170.32 27.2827C170.516 26.5542 170.598 25.7999 170.562 25.0465V2.34006H170.734L160.584 29.519H159.928L149.5 2.85611V24.6336C149.47 25.4209 149.552 26.2084 149.742 26.9731C149.827 27.2421 149.969 27.4894 150.16 27.6974C150.351 27.9055 150.586 28.0693 150.847 28.1772C151.622 28.461 152.439 28.6122 153.264 28.6245V29.4501C152.609 29.4072 151.951 29.4072 151.296 29.4501H146.945C146.359 29.4074 145.771 29.4074 145.185 29.4501V28.6245C145.919 28.6064 146.645 28.4548 147.325 28.1772C147.597 28.0803 147.842 27.9206 148.04 27.7114C148.238 27.5021 148.383 27.2491 148.465 26.9731C148.574 26.1971 148.574 25.4096 148.465 24.6336V4.5763C148.58 3.83532 148.58 3.08104 148.465 2.34006C148.392 2.11031 148.267 1.9005 148.1 1.72731C147.932 1.55411 147.726 1.4223 147.498 1.34235C146.747 1.12154 145.967 1.01711 145.185 1.03272V0.207031H146.945H149.017H150.916H152.539L161.965 24.9089L161.24 25.2185L170.562 0.344646H172.633H175.499L177.778 0.207031Z" fill="#FFF9F1"/>
<path d="M216 0.207031V1.03272C215.265 1.02151 214.536 1.16208 213.859 1.44556C213.618 1.56173 213.406 1.73016 213.239 1.93851C213.072 2.14686 212.953 2.38985 212.892 2.64969C212.688 3.41217 212.595 4.20014 212.616 4.98914V29.6566H211.684L194.42 2.85611V24.6336C194.382 25.4233 194.475 26.214 194.697 26.9731C194.768 27.2431 194.903 27.4927 195.088 27.7018C195.274 27.9109 195.507 28.0737 195.767 28.1772C196.542 28.461 197.359 28.6122 198.184 28.6245V29.4502C197.529 29.4062 196.871 29.4062 196.216 29.4502H191.727C191.141 29.4096 190.553 29.4096 189.967 29.4502V28.6245C190.701 28.6064 191.427 28.4548 192.107 28.1772C192.347 28.0591 192.558 27.89 192.725 27.682C192.892 27.474 193.011 27.232 193.074 26.9731C193.276 26.2101 193.369 25.4225 193.35 24.6336V4.5763C193.386 3.82292 193.305 3.06854 193.108 2.34006C193.036 2.11031 192.911 1.9005 192.743 1.72731C192.576 1.55411 192.37 1.4223 192.142 1.34235C191.413 1.12843 190.657 1.02407 189.897 1.03272V0.207031H191.658H193.764H195.491H196.975L211.615 22.6726V4.98914C211.636 4.20014 211.543 3.41217 211.339 2.64969C211.256 2.38499 211.118 2.14081 210.933 1.93324C210.749 1.72568 210.522 1.55947 210.268 1.44556C209.494 1.16538 208.675 1.02556 207.851 1.03272V0.207031H209.819H212.064H214.204H216Z" fill="#FFF9F1"/>
<path d="M8.625 0.207031L0 19.2951V0.207031H8.625Z" fill="#FFF9F1"/>
</g>
<defs>
<clipPath id="clip0_402_15608">
<rect width="216" height="30" fill="white"/>
</clipPath>
</defs>
</svg>
