<svg width="165" height="116" viewBox="0 0 165 116" fill="none" xmlns="http://www.w3.org/2000/svg">
<circle cx="82.5" cy="40" r="40" fill="black"/>
<g clip-path="url(#clip0_414:15727)">
<path d="M10.9859 94L18.562 113.048C18.7507 113.647 19.1259 114.175 19.6368 114.562C19.9604 114.792 20.3391 114.939 20.7379 114.991V115.596C20.2228 115.566 19.7063 115.566 19.1912 115.596H15.0754C14.4992 115.564 13.9215 115.564 13.3453 115.596V114.991C14.069 115.037 14.7881 114.851 15.39 114.461C15.6784 114.133 15.5997 113.477 15.1803 112.443L9.3344 97.305L9.83248 96.9266L4.3798 110.677C4.00344 111.471 3.78982 112.327 3.75064 113.2C3.73699 113.459 3.79536 113.717 3.91975 113.948C4.04414 114.178 4.23007 114.373 4.45844 114.511C5.08673 114.806 5.77841 114.953 6.47698 114.94V115.546C5.90026 115.546 5.2711 115.546 4.64194 115.546H1.52238C1.18216 115.519 0.840219 115.519 0.5 115.546L0.5 114.991C0.990367 114.827 1.43144 114.55 1.78453 114.183C2.37778 113.682 2.83643 113.05 3.12148 112.342L10.383 94H10.9859ZM14.7084 106.867V107.472H5.34974L5.74297 106.867H14.7084Z" fill="#231F20"/>
<path d="M47.6873 94.1514V94.7569C47.1383 94.7507 46.5939 94.8538 46.0882 95.0597C45.9054 95.1488 45.7435 95.2732 45.6127 95.4251C45.4819 95.577 45.385 95.7532 45.328 95.9427C45.1965 96.5055 45.1349 97.0814 45.1445 97.6583V106.766C45.1672 108.008 45.0707 109.25 44.8561 110.475C44.6964 111.433 44.359 112.356 43.86 113.2C43.2977 114.069 42.5003 114.776 41.5531 115.243C40.4817 115.765 39.2932 116.025 38.0927 116C37.1296 116.009 36.1692 115.899 35.2353 115.672C34.337 115.433 33.5105 114.992 32.8235 114.385C32.2523 113.861 31.7662 113.257 31.3817 112.594C31.0113 111.873 30.7719 111.097 30.6739 110.298C30.5346 109.16 30.4733 108.013 30.4904 106.867V97.3555C30.5177 96.803 30.4558 96.2498 30.3069 95.7156C30.2521 95.5471 30.1572 95.3933 30.0298 95.2663C29.9024 95.1393 29.7459 95.0426 29.5729 94.984C29.0619 94.839 28.5326 94.7626 28 94.7569V94.1514H29.7302L31.9584 94.2523H34.1605H35.9693V94.7569C35.4191 94.7579 34.8718 94.8344 34.344 94.984C34.171 95.0426 34.0145 95.1393 33.8871 95.2663C33.7597 95.3933 33.6648 95.5471 33.61 95.7156C33.4611 96.2498 33.3992 96.803 33.4265 97.3555V107.447C33.4162 108.715 33.5215 109.981 33.741 111.232C33.8849 112.271 34.3614 113.241 35.1042 114.007C35.5529 114.377 36.0739 114.657 36.6367 114.83C37.1995 115.003 37.7925 115.067 38.3811 115.016C39.6975 115.102 41.0042 114.746 42.0774 114.007C42.98 113.283 43.6222 112.303 43.9124 111.206C44.2728 109.898 44.4491 108.549 44.4367 107.195V97.6583C44.4596 97.0737 44.3616 96.4905 44.1483 95.9427C44.0696 95.7451 43.9499 95.565 43.7967 95.4132C43.6435 95.2615 43.4599 95.1412 43.257 95.0597C42.7299 94.8639 42.1705 94.7613 41.6055 94.7569V94.1514H43.0997H44.8299H46.4552H47.6873Z" fill="#231F20"/>
<path d="M73.9017 94.1514C73.9017 94.9083 73.9017 95.6652 73.7444 96.3716C73.5871 97.078 73.7444 97.633 73.7444 98.0367C73.7444 98.4404 73.7444 98.9702 73.7444 99.3991C73.7444 99.828 73.7444 100.181 73.7444 100.509H73.0366C72.939 99.3757 72.7372 98.2529 72.4336 97.1537C72.2385 96.4293 71.7716 95.8002 71.1229 95.3876C70.1893 94.9705 69.1611 94.7882 68.1344 94.8578H66.4304V112.064C66.4026 112.678 66.4823 113.292 66.6664 113.881C66.7446 114.081 66.8709 114.261 67.0348 114.406C67.1988 114.55 67.3959 114.656 67.6101 114.713C68.2623 114.873 68.93 114.966 69.6024 114.991V115.596C69.0781 115.596 68.3703 115.596 67.5314 115.596H62.2885C61.4496 115.596 60.7942 115.596 60.2699 115.596V114.991C60.9511 114.967 61.6277 114.874 62.2885 114.713C62.5359 114.682 62.7705 114.589 62.9685 114.443C63.1665 114.297 63.3207 114.103 63.4157 113.881C63.5208 113.279 63.5208 112.666 63.4157 112.064V94.8578H61.7118C60.7109 94.7956 59.71 94.9779 58.8019 95.3876C58.4693 95.5829 58.1801 95.8395 57.9506 96.1425C57.7212 96.4455 57.5562 96.7892 57.4649 97.1537C57.1614 98.2529 56.9596 99.3757 56.862 100.509H56.128C56.1568 100.14 56.1568 99.7686 56.128 99.3991C56.128 98.9702 56.128 98.5161 56.128 98.0367C56.128 97.5574 56.128 97.1032 56.128 96.3716C56.128 95.6399 56.128 94.9083 55.9707 94.1514H58.8281H61.9739H67.6887H70.8083H73.9017Z" fill="#231F20"/>
<path d="M101.952 94.1514V94.7569C101.394 94.7515 100.841 94.8545 100.326 95.0597C100.146 95.149 99.988 95.2738 99.8615 95.4259C99.7351 95.5781 99.6433 95.7541 99.5922 95.9427C99.4477 96.5034 99.3859 97.081 99.4087 97.6583V106.766C99.4181 108.008 99.3217 109.248 99.1203 110.475C98.9606 111.433 98.6232 112.356 98.1242 113.2C97.555 114.064 96.7593 114.769 95.8173 115.243C94.7459 115.765 93.5574 116.025 92.3569 116C91.3852 116.007 90.4164 115.897 89.4733 115.672C88.559 115.434 87.7152 114.993 87.0091 114.385C86.4444 113.862 85.9669 113.258 85.5935 112.594C85.223 111.873 84.9836 111.097 84.8857 110.298C84.7464 109.16 84.6851 108.013 84.7022 106.867V97.3555C84.7236 96.8016 84.6528 96.248 84.4925 95.7156C84.4415 95.5452 84.348 95.3894 84.2201 95.2619C84.0921 95.1343 83.9336 95.0389 83.7584 94.984C83.2479 94.8371 82.7184 94.7607 82.1855 94.7569V94.1514H83.9157H86.2226H88.3985H90.2073V94.7569C89.6656 94.7575 89.127 94.834 88.6082 94.984C88.4313 95.041 88.2706 95.1368 88.1387 95.2637C88.0067 95.3907 87.9072 95.5454 87.848 95.7156C87.7122 96.2521 87.6505 96.8035 87.6645 97.3555V107.447C87.6542 108.715 87.7595 109.981 87.979 111.232C88.1389 112.266 88.6132 113.232 89.3422 114.007C89.7964 114.376 90.3221 114.656 90.889 114.829C91.4559 115.002 92.0528 115.066 92.6453 115.016C93.9617 115.102 95.2684 114.746 96.3416 114.007C97.2359 113.28 97.8689 112.3 98.1504 111.206C98.5248 109.901 98.7014 108.549 98.6747 107.195V97.6583C98.7046 97.0754 98.6156 96.4926 98.4125 95.9427C98.2397 95.5434 97.9099 95.226 97.495 95.0597C96.9589 94.8635 96.3908 94.761 95.8173 94.7569V94.1514H97.3115H99.0155H100.641H101.952Z" fill="#231F20"/>
<path d="M135.48 94.1514V94.7569C134.93 94.7579 134.383 94.8344 133.855 94.984C133.682 95.0426 133.525 95.1393 133.398 95.2663C133.271 95.3933 133.176 95.5471 133.121 95.7156C132.972 96.2498 132.91 96.803 132.937 97.3555V112.493C132.91 113.046 132.972 113.599 133.121 114.133C133.172 114.303 133.265 114.459 133.393 114.587C133.521 114.714 133.68 114.81 133.855 114.865C134.384 115.012 134.93 115.097 135.48 115.117V115.722C134.878 115.692 134.274 115.692 133.671 115.722H129.189C128.612 115.691 128.035 115.691 127.458 115.722V114.991C128.009 114.971 128.555 114.886 129.084 114.739C129.259 114.684 129.417 114.588 129.545 114.461C129.673 114.333 129.767 114.177 129.818 114.007C129.967 113.473 130.029 112.919 130.001 112.367V95.7156H130.132L122.425 115.647H121.927L114.01 96.0941V112.064C113.987 112.642 114.049 113.219 114.194 113.78C114.258 113.977 114.366 114.158 114.511 114.311C114.656 114.464 114.834 114.584 115.033 114.663C115.621 114.871 116.241 114.982 116.868 114.991V115.596C116.37 115.565 115.871 115.565 115.373 115.596H112.07C111.625 115.565 111.178 115.565 110.733 115.596V114.991C111.291 114.978 111.842 114.866 112.359 114.663C112.565 114.592 112.751 114.475 112.901 114.321C113.052 114.168 113.162 113.982 113.224 113.78C113.307 113.211 113.307 112.633 113.224 112.064V97.3555C113.311 96.8121 113.311 96.259 113.224 95.7156C113.169 95.5471 113.074 95.3933 112.947 95.2663C112.819 95.1393 112.663 95.0426 112.49 94.984C111.92 94.822 111.327 94.7455 110.733 94.7569V94.1514H112.07H113.643H115.085H116.317L123.474 112.266L122.923 112.493L130.001 94.2523H131.574H133.75L135.48 94.1514Z" fill="#231F20"/>
<path d="M164.5 94.1514V94.7569C163.942 94.7487 163.389 94.8518 162.875 95.0597C162.692 95.1448 162.531 95.2684 162.404 95.4211C162.277 95.5739 162.187 95.7521 162.141 95.9427C161.985 96.5018 161.915 97.0797 161.931 97.6583V115.748H161.223L148.116 96.0941V112.064C148.086 112.643 148.157 113.223 148.326 113.78C148.38 113.978 148.482 114.161 148.623 114.314C148.764 114.468 148.94 114.587 149.138 114.663C149.726 114.871 150.347 114.982 150.973 114.991V115.596C150.476 115.564 149.976 115.564 149.479 115.596H146.071C145.626 115.567 145.179 115.567 144.734 115.596V114.991C145.292 114.978 145.843 114.866 146.359 114.663C146.541 114.576 146.701 114.452 146.828 114.3C146.955 114.147 147.046 113.97 147.093 113.78C147.247 113.22 147.317 112.643 147.303 112.064V97.3555C147.33 96.803 147.269 96.2498 147.12 95.7156C147.065 95.5471 146.97 95.3933 146.842 95.2663C146.715 95.1393 146.559 95.0426 146.386 94.984C145.833 94.8271 145.258 94.7506 144.682 94.7569V94.1514H146.019H147.618H148.928H150.056L161.171 110.626V97.6583C161.187 97.0797 161.117 96.5018 160.961 95.9427C160.898 95.7486 160.793 95.5695 160.653 95.4173C160.513 95.2651 160.341 95.1432 160.148 95.0597C159.56 94.8542 158.939 94.7517 158.313 94.7569V94.1514H159.808H161.512H163.137H164.5Z" fill="#231F20"/>
<path d="M7.04861 94.1513L0.5 108.149V94.1513H7.04861Z" fill="#99521F"/>
</g>
<path d="M82.8136 20L96.0451 54.4435C96.3746 55.526 97.0298 56.4815 97.9222 57.1807C98.4873 57.5967 99.1488 57.8635 99.8452 57.9563V59.0512C98.9456 58.9972 98.0435 58.9972 97.1439 59.0512H89.9558C88.9495 58.9922 87.9405 58.9922 86.9341 59.0512V57.9563C88.1981 58.0396 89.4541 57.7026 90.5052 56.9983C91.0089 56.4052 90.8715 55.2191 90.139 53.3486L79.9292 25.9763L80.7991 25.292L71.276 50.1552C70.6187 51.5913 70.2456 53.1403 70.1772 54.7172C70.1534 55.1864 70.2553 55.6534 70.4726 56.0703C70.6898 56.4873 71.0145 56.839 71.4134 57.0895C72.5107 57.6214 73.7187 57.8871 74.9387 57.8651V58.9599C73.9315 58.9599 72.8327 58.9599 71.7339 58.9599H66.2856C65.6914 58.9113 65.0942 58.9113 64.5 58.9599V57.9563C65.3564 57.6599 66.1268 57.1586 66.7434 56.4964C67.7795 55.5899 68.5806 54.4474 69.0784 53.1661L81.7605 20H82.8136ZM89.3149 43.2665V44.3614H72.97L73.6568 43.2665H89.3149Z" fill="white"/>
<path d="M75.9371 20.2739L64.5 45.5855V20.2739H75.9371Z" fill="white"/>
<defs>
<clipPath id="clip0_414:15727">
<rect width="164" height="22" fill="white" transform="translate(0.5 94)"/>
</clipPath>
</defs>
</svg>
