<svg width="218" height="79" viewBox="0 0 218 79" fill="none" xmlns="http://www.w3.org/2000/svg">
<path d="M24.1013 26.4371C24.7731 28.1648 25.7388 29.0565 26.9984 29.1122V29.9482C25.8788 29.8646 24.3812 29.8228 22.5057 29.8228C20.0984 29.8228 18.3069 29.8646 17.1312 29.9482V29.1122C18.1949 29.0565 18.9507 28.9311 19.3986 28.736C19.8744 28.5131 20.1124 28.123 20.1124 27.5657C20.1124 27.0919 19.9444 26.4371 19.6085 25.6011L17.0472 18.7461H6.88607L5.16455 23.1768C4.60471 24.6815 4.32479 25.824 4.32479 26.6043C4.32479 27.4681 4.61871 28.0951 5.20654 28.4852C5.82237 28.8754 6.74611 29.0844 7.97777 29.1122V29.9482C6.38221 29.8646 4.77266 29.8228 3.14912 29.8228C1.88947 29.8228 0.839765 29.8646 0 29.9482V29.1122C1.39961 28.7778 2.5053 27.5657 3.31707 25.4757L13.1843 0.145508H13.8561L24.1013 26.4371ZM16.7113 17.9101L12.0086 5.41218L7.22198 17.9101H16.7113Z" fill="white"/>
<path d="M59.187 25.4339C59.187 26.7157 59.425 27.6493 59.9008 28.2344C60.3767 28.8196 61.2025 29.1122 62.3781 29.1122V29.99C61.5104 29.9064 60.6426 29.8646 59.7749 29.8646C58.0114 29.8646 56.5558 30.0597 55.4081 30.4498V25.5175C54.7363 27.2452 53.7845 28.5131 52.5529 29.3212C51.3212 30.1293 49.9776 30.5334 48.522 30.5334C46.6185 30.5334 45.1629 30.0039 44.1552 28.945C43.6514 28.3877 43.2875 27.6771 43.0635 26.8133C42.8676 25.9494 42.7696 24.8348 42.7696 23.4694V12.9778C42.7696 11.696 42.5317 10.7625 42.0558 10.1773C41.58 9.59208 40.7542 9.29949 39.5785 9.29949V8.42171C40.4463 8.50531 41.314 8.54711 42.1818 8.54711C43.9453 8.54711 45.4009 8.35205 46.5486 7.96192V24.3889C46.5486 25.4478 46.6045 26.3117 46.7165 26.9805C46.8565 27.6214 47.1504 28.1508 47.5983 28.5688C48.0741 28.9868 48.7879 29.1958 49.7397 29.1958C50.8034 29.1958 51.7691 28.8614 52.6369 28.1926C53.5046 27.5239 54.1764 26.6182 54.6523 25.4757C55.1562 24.3053 55.4081 23.0235 55.4081 21.6302V12.9778C55.4081 11.696 55.1701 10.7625 54.6943 10.1773C54.2184 9.59208 53.3926 9.29949 52.217 9.29949V8.42171C53.0847 8.50531 53.9525 8.54711 54.8202 8.54711C56.5838 8.54711 58.0393 8.35205 59.187 7.96192V25.4339Z" fill="white"/>
<path d="M84.7182 8.46351H90.9324V9.29949H84.7182V25.4757C84.7182 26.7297 84.9421 27.6353 85.39 28.1926C85.8659 28.75 86.5377 29.0286 87.4054 29.0286C88.2732 29.0286 89.015 28.6803 89.6308 27.9836C90.2466 27.287 90.7645 26.1445 91.1844 24.5561L92.0241 24.7651C91.3243 28.6106 89.5048 30.5334 86.5657 30.5334C85.6139 30.5334 84.8301 30.4219 84.2143 30.199C83.5985 29.9761 83.0526 29.6277 82.5768 29.154C81.9609 28.541 81.5271 27.7886 81.2751 26.8969C81.0512 26.0052 80.9392 24.8069 80.9392 23.3022V9.29949H76.9084V8.46351H80.9392V2.06826C82.5068 2.01253 83.7664 1.81747 84.7182 1.48308V8.46351Z" fill="white"/>
<path d="M125.3 25.4339C125.3 26.7157 125.538 27.6493 126.014 28.2344C126.49 28.8196 127.316 29.1122 128.492 29.1122V29.99C127.624 29.9064 126.756 29.8646 125.888 29.8646C124.125 29.8646 122.669 30.0597 121.522 30.4498V25.5175C120.85 27.2452 119.898 28.5131 118.666 29.3212C117.435 30.1293 116.091 30.5334 114.635 30.5334C112.732 30.5334 111.276 30.0039 110.269 28.945C109.765 28.3877 109.401 27.6771 109.177 26.8133C108.981 25.9494 108.883 24.8348 108.883 23.4694V12.9778C108.883 11.696 108.645 10.7625 108.169 10.1773C107.693 9.59208 106.868 9.29949 105.692 9.29949V8.42171C106.56 8.50531 107.427 8.54711 108.295 8.54711C110.059 8.54711 111.514 8.35205 112.662 7.96192V24.3889C112.662 25.4478 112.718 26.3117 112.83 26.9805C112.97 27.6214 113.264 28.1508 113.712 28.5688C114.188 28.9868 114.901 29.1958 115.853 29.1958C116.917 29.1958 117.883 28.8614 118.75 28.1926C119.618 27.5239 120.29 26.6182 120.766 25.4757C121.27 24.3053 121.522 23.0235 121.522 21.6302V12.9778C121.522 11.696 121.284 10.7625 120.808 10.1773C120.332 9.59208 119.506 9.29949 118.33 9.29949V8.42171C119.198 8.50531 120.066 8.54711 120.934 8.54711C122.697 8.54711 124.153 8.35205 125.3 7.96192V25.4339Z" fill="white"/>
<path d="M176.318 26.0609C176.318 27.2034 176.556 27.9976 177.032 28.4434C177.508 28.8614 178.334 29.0704 179.51 29.0704V29.9482C176.934 29.8367 175.255 29.781 174.471 29.781C173.687 29.781 172.12 29.8367 169.768 29.9482V29.0704C170.804 29.0704 171.518 28.8614 171.91 28.4434C172.33 27.9976 172.54 27.2034 172.54 26.0609V13.981C172.54 12.9221 172.47 12.0722 172.33 11.4312C172.218 10.7625 171.924 10.2191 171.448 9.80108C171 9.38309 170.3 9.17409 169.348 9.17409C168.285 9.17409 167.319 9.50849 166.451 10.1773C165.583 10.8461 164.898 11.7656 164.394 12.936C163.918 14.0785 163.68 15.3464 163.68 16.7397V26.0609C163.68 27.2034 163.918 27.9976 164.394 28.4434C164.87 28.8614 165.695 29.0704 166.871 29.0704V29.9482C164.296 29.8367 162.616 29.781 161.833 29.781C161.049 29.781 159.481 29.8367 157.13 29.9482V29.0704C158.166 29.0704 158.879 28.8614 159.271 28.4434C159.691 27.9976 159.901 27.2034 159.901 26.0609V13.981C159.901 12.9221 159.831 12.0722 159.691 11.4312C159.579 10.7625 159.285 10.2191 158.809 9.80108C158.362 9.38309 157.662 9.17409 156.71 9.17409C155.646 9.17409 154.681 9.50849 153.813 10.1773C152.945 10.8461 152.259 11.7656 151.755 12.936C151.279 14.1064 151.042 15.3882 151.042 16.7815V26.0609C151.042 27.2034 151.238 27.9976 151.629 28.4434C152.049 28.8614 152.777 29.0704 153.813 29.0704V29.9482C151.461 29.8367 149.894 29.781 149.11 29.781C148.326 29.781 146.647 29.8367 144.072 29.9482V29.0704C145.247 29.0704 146.073 28.8614 146.549 28.4434C147.025 27.9976 147.263 27.2034 147.263 26.0609V12.9778C147.263 11.696 147.025 10.7625 146.549 10.1773C146.073 9.59208 145.247 9.29949 144.072 9.29949V8.42171C144.967 8.50531 145.835 8.54711 146.675 8.54711C148.438 8.54711 149.894 8.35205 151.042 7.96192V12.8942C151.713 11.1665 152.665 9.89861 153.897 9.0905C155.128 8.25451 156.472 7.83652 157.928 7.83652C159.831 7.83652 161.287 8.36598 162.294 9.42489C162.994 10.1494 163.428 11.264 163.596 12.7688C164.296 11.0132 165.262 9.75928 166.493 9.0069C167.725 8.22665 169.083 7.83652 170.566 7.83652C172.47 7.83652 173.925 8.36598 174.933 9.42489C175.437 9.98221 175.787 10.6928 175.983 11.5566C176.207 12.4205 176.318 13.5351 176.318 14.9006V26.0609Z" fill="white"/>
<path d="M208.889 7.83652C210.848 7.83652 212.332 8.36598 213.339 9.42489C213.871 9.98221 214.249 10.6789 214.473 11.5148C214.697 12.3508 214.809 13.4794 214.809 14.9006V26.0609C214.809 27.2034 215.047 27.9976 215.523 28.4434C215.999 28.8614 216.824 29.0704 218 29.0704V29.9482C215.425 29.8367 213.745 29.781 212.961 29.781C212.178 29.781 210.61 29.8367 208.259 29.9482V29.0704C209.294 29.0704 210.008 28.8614 210.4 28.4434C210.82 27.9976 211.03 27.2034 211.03 26.0609V13.981C211.03 12.4205 210.806 11.2362 210.358 10.4281C209.91 9.59208 209.001 9.17409 207.629 9.17409C206.481 9.17409 205.46 9.50849 204.564 10.1773C203.668 10.8461 202.968 11.7656 202.464 12.936C201.988 14.0785 201.751 15.3603 201.751 16.7815V26.0609C201.751 27.2034 201.947 27.9976 202.338 28.4434C202.758 28.8614 203.486 29.0704 204.522 29.0704V29.9482C202.17 29.8367 200.603 29.781 199.819 29.781C199.035 29.781 197.356 29.8367 194.781 29.9482V29.0704C195.956 29.0704 196.782 28.8614 197.258 28.4434C197.734 27.9976 197.972 27.2034 197.972 26.0609V12.9778C197.972 11.696 197.734 10.7625 197.258 10.1773C196.782 9.59208 195.956 9.29949 194.781 9.29949V8.42171C195.676 8.50531 196.544 8.54711 197.384 8.54711C199.147 8.54711 200.603 8.35205 201.751 7.96192V12.8942C202.45 11.1108 203.416 9.82894 204.648 9.0487C205.907 8.24058 207.321 7.83652 208.889 7.83652Z" fill="white"/>
<path d="M111.24 22.4821C109.942 21.2792 108.471 20.5918 105.789 19.9044C104.059 19.4748 101.81 19.303 99.3006 19.303C95.0613 19.3889 90.1299 20.0763 85.7176 21.2792C73.7783 24.4583 61.147 32.2771 58.1189 38.2916C57.2537 39.9241 57.1672 40.6974 57.8594 41.4707C58.465 42.1581 59.6762 42.0721 59.5032 41.2989C59.0706 39.4945 59.5897 38.4634 62.1852 35.714C66.4245 31.1601 76.1143 25.7471 84.4198 23.2554C90.0434 21.5369 93.5906 21.0214 99.3871 21.0214C104.059 21.0214 104.665 21.1073 106.395 21.6229C108.904 22.3961 109.856 22.9976 110.634 24.2864C111.499 25.7471 111.326 27.2937 110.029 29.4417C106.395 35.5421 95.5804 43.0173 82.9491 48.1726C80.4401 49.2036 78.1907 50.0628 77.9311 50.0628C77.412 50.0628 77.8446 49.2036 82.8625 40.8692C84.9389 37.4324 87.794 33.0504 89.1782 31.1601C91.7737 27.6374 92.1198 26.7781 90.822 26.7781C90.2164 26.7781 89.6973 27.2937 87.967 29.5276C85.458 32.7067 81.2187 39.4086 77.5851 45.8527C76.2008 48.3444 74.9031 50.4924 74.6435 50.5784C74.384 50.6643 73.6053 50.8361 72.9132 51.008C72.2211 51.1798 71.5289 51.5235 71.4424 51.7813C71.1829 52.3827 71.7885 52.9842 72.6536 52.9842C73.0862 52.9842 73.4323 53.0701 73.4323 53.156C73.4323 53.2419 72.5671 55.1322 71.4424 57.3662C70.3177 59.6001 69.4525 61.4904 69.4525 61.6622C69.4525 61.8341 68.3278 62.3496 66.9436 62.8651C63.1368 64.3258 60.3683 65.8724 57.7728 68.0204C55.0908 70.1684 53.7931 71.9728 53.5335 73.949C53.274 76.2689 55.0908 77.9873 58.465 78.5887C60.2818 78.9324 62.7043 78.7606 65.9054 77.9873C79.0558 74.98 89.0917 68.3641 92.3793 60.5452C93.158 58.655 93.158 55.9914 92.3793 54.7026C91.1681 52.7264 87.794 50.9221 84.3333 50.4924C83.6412 50.4065 83.1221 50.2347 83.1221 50.1488C83.1221 50.0628 84.5064 49.4614 86.1502 48.774C100.685 42.7595 112.538 33.1363 112.97 27.0359C113.143 24.9738 112.711 23.7709 111.413 22.568L111.24 22.4821ZM87.3614 52.8982C91.5142 54.5308 92.1198 57.1943 89.3513 61.8341C85.3715 68.5359 74.6435 74.7223 63.0503 76.8703C60.8009 77.2999 59.7627 77.2999 58.1189 76.9562C56.7346 76.6125 55.4369 75.4096 55.4369 74.4645C55.4369 72.4024 58.7245 68.8796 62.8773 66.5597C64.7807 65.4428 68.0683 63.9821 68.5009 63.9821C68.5874 63.9821 68.7604 64.3258 68.8469 64.7554C69.1065 65.7005 69.7121 66.2161 70.4907 66.0442C70.9233 65.9583 71.0098 65.7005 70.9233 64.9272C70.7503 63.1229 71.0098 62.8651 73.4323 62.0059C77.1525 60.7171 80.7862 59.8579 82.776 59.772C84.2468 59.772 84.6794 59.686 84.7659 59.3423C85.112 58.0535 81.3918 58.1394 76.0278 59.6001C73.9514 60.1156 72.2211 60.5452 72.1345 60.5452C72.048 60.4593 74.384 55.8196 75.6817 53.5856C76.5469 51.9531 76.8929 51.7813 79.4884 51.5235C79.921 51.4376 80.3536 51.4376 80.8727 51.4376C83.0356 51.4376 85.5445 51.8672 87.4479 52.6405L87.3614 52.8982Z" fill="white"/>
<path d="M121.487 51.5235C121.228 51.5235 118.978 53.3279 117.681 54.273C115.777 55.6477 112.749 57.8817 111.797 58.4831C107.904 60.8889 104.53 61.6622 103.232 60.4593C102.367 59.686 102.54 57.0225 103.665 53.9293C104.53 51.6094 104.617 51.4376 105.655 51.0939C106.26 50.9221 107.645 50.2347 108.769 49.6332C118.892 43.8765 125.727 34.597 121.66 32.1053C121.228 31.8475 120.968 31.7616 120.709 31.7616C120.449 31.7616 120.103 31.8475 119.411 32.0193C115.518 33.2222 109.289 39.4086 105.222 46.1105C101.243 52.6405 99.6852 57.538 100.723 60.1156C101.156 61.0608 102.108 62.0059 102.973 62.2637C105.136 62.951 108.423 62.1778 112.403 59.9438C114.479 58.7409 118.546 55.6477 120.795 53.5856C121.574 52.8123 122.093 52.2968 122.093 52.125C122.006 51.8672 121.747 51.6094 121.487 51.6094V51.5235ZM107.904 45.1653C111.105 40.3537 116.815 34.6829 119.67 33.48C120.103 33.3082 120.363 33.2222 120.536 33.2222C120.709 33.2222 120.795 33.3082 120.882 33.5659C121.314 34.6829 119.584 38.0338 117.248 40.5256C115.258 42.6736 111.797 45.509 108.856 47.3993C107.385 48.3444 106.001 49.1177 105.828 49.1177C105.482 49.1177 106.433 47.3134 107.904 45.0794V45.1653Z" fill="white"/>
<path d="M140.678 51.6953C140.246 51.1798 139.381 51.6094 137.131 52.9842C133.324 55.304 129.691 56.3351 126.836 56.3351H125.451L125.884 55.1322C126.663 53.156 126.49 52.125 125.105 50.8361C124.673 50.4924 123.981 50.3206 123.289 50.3206C122.596 50.3206 121.904 50.4924 121.385 50.8361C120.953 51.0939 120.434 51.3517 120.174 51.4376C119.914 51.5235 119.136 52.2968 118.444 53.156C115.675 56.5069 115.156 59.5142 117.146 60.9749C118.271 61.7481 119.222 61.8341 120.78 61.3185C121.904 60.9749 124.24 59.0846 124.5 58.3972C124.673 58.0535 125.019 57.9676 126.49 57.9676C130.037 57.9676 133.497 57.1084 137.996 54.5307C140.419 53.156 141.111 52.2968 140.765 51.8672L140.678 51.6953ZM122.164 58.4831C121.818 58.9127 121.039 59.5142 120.434 59.772C119.049 60.4593 118.444 60.4593 118.011 59.686C117.579 58.9127 117.838 57.7958 118.79 56.1633L119.482 54.9604L120.174 55.9055C120.52 56.421 121.385 56.9365 121.991 57.3662L122.769 57.7958L122.164 58.4831ZM124.154 54.7026C123.981 55.39 123.721 56.0773 123.548 56.1633C123.375 56.2492 122.856 56.0773 122.337 55.7337C121.645 55.2181 121.385 54.8744 121.385 54.273C121.385 53.3279 122.337 52.2109 123.202 52.125C123.289 52.125 123.375 52.125 123.462 52.125C124.327 52.2109 124.586 53.0701 124.24 54.7026H124.154Z" fill="white"/>
<path d="M162.3 51.5235C162.3 51.5235 162.213 51.5235 162.127 51.5235C161.781 51.5235 160.829 51.7813 159.618 52.2109C157.542 52.9842 156.157 53.4997 153.735 54.7026C151.485 55.8196 151.139 55.9055 151.312 55.39C151.399 55.0463 151.572 54.1011 151.658 53.2419C151.832 51.8672 151.745 51.6094 151.139 51.1798C150.188 50.4065 149.236 50.4924 147.16 51.6094C145.602 52.4686 145.343 52.5546 145.17 52.2109C145.083 51.9531 144.651 51.5235 144.218 51.1798C143.526 50.6643 143.18 50.5784 141.882 50.6643C140.584 50.7502 140.238 50.9221 138.595 52.3827C134.788 55.6477 133.317 60.2016 135.913 60.7171C137.383 61.0608 138.768 60.2875 143.526 56.421C147.852 52.9842 149.323 52.039 149.842 52.4686C149.928 52.5546 149.582 53.7575 149.063 55.1322C148.198 57.3662 147.938 57.7098 146.814 58.3972C144.478 59.772 139.979 62.6933 136.864 64.9272C130.029 69.8248 127.001 74.0349 128.991 75.7533C130.549 77.1281 134.355 75.9252 138.335 72.7461C141.45 70.2544 144.564 66.7316 147.333 62.5214C148.457 60.803 149.582 59.1705 149.842 58.8268C150.361 58.0535 152.005 57.1084 157.715 54.6167C158.839 54.1011 159.791 53.6715 160.483 53.3279C162.56 52.2968 162.906 51.7813 162.127 51.4376L162.3 51.5235ZM140.757 56.5069C136.518 59.9438 135.913 60.1156 137.124 57.538C137.989 55.7336 140.325 53.156 141.623 52.5546C142.228 52.2968 142.488 52.2109 142.661 52.2109C142.834 52.2109 142.92 52.2968 143.093 52.5546C143.353 52.8123 143.699 53.156 143.872 53.3279C144.045 53.4997 143.007 54.5308 140.671 56.421L140.757 56.5069ZM142.834 64.8413C139.892 68.7937 136.086 72.3165 133.144 73.8631C132.452 74.2067 131.5 74.5504 131.068 74.6364C130.289 74.8082 130.202 74.7223 130.202 74.0349C130.202 72.2306 135.047 67.7626 141.623 63.3806C143.872 61.92 145.083 61.0608 145.343 61.0608C145.602 61.0608 144.651 62.1778 142.747 64.6695L142.834 64.8413Z" fill="white"/>
</svg>
