<svg width="28" height="31" viewBox="0 0 28 31" fill="none" xmlns="http://www.w3.org/2000/svg">
<g clip-path="url(#clip0_402_15683)">
<path d="M8.80852 28.0947C19.372 28.0947 25.1513 18.4029 25.1513 10.0008C25.1513 9.72839 25.1459 9.44987 25.1349 9.17741C26.2592 8.27725 27.2294 7.16227 28 5.88487C26.9529 6.40064 25.8412 6.73748 24.7029 6.8839C25.9015 6.08845 26.799 4.83885 27.2289 3.36673C26.1013 4.10658 24.8682 4.62849 23.5823 4.91007C22.716 3.89088 21.5705 3.21605 20.323 2.98993C19.0754 2.7638 17.7954 2.99897 16.6807 3.65907C15.566 4.31917 14.6788 5.36744 14.1562 6.64181C13.6335 7.91617 13.5047 9.34566 13.7895 10.7092C11.5062 10.5824 9.27259 9.92573 7.23331 8.78182C5.19403 7.63792 3.39464 6.0323 1.9518 4.06907C1.21847 5.46889 0.994066 7.12532 1.3242 8.70173C1.65434 10.2781 2.51424 11.6562 3.72914 12.5559C2.81707 12.5239 1.92497 12.252 1.12656 11.7628V11.8415C1.12575 13.3105 1.58445 14.7345 2.42469 15.8714C3.26494 17.0083 4.43488 17.7879 5.73562 18.0778C4.89073 18.3337 4.00398 18.371 3.14398 18.1868C3.51103 19.4501 4.22517 20.5551 5.18673 21.3475C6.1483 22.1398 7.30931 22.58 8.50773 22.6067C6.47316 24.3761 3.95987 25.3359 1.37266 25.3313C0.913835 25.3305 0.455466 25.2994 0 25.2381C2.62833 27.105 5.68579 28.0965 8.80852 28.0947Z" fill="#FFFFFF"/>
</g>
<defs>
<clipPath id="clip0_402_15683">
<rect width="28" height="31" fill="white"/>
</clipPath>
</defs>
</svg>
