<svg width="27" height="27" viewBox="0 0 27 27" fill="none" xmlns="http://www.w3.org/2000/svg">
<path d="M26.7311 8.10137C26.7311 8.10137 26.4674 6.23984 25.6553 5.42246C24.627 4.34668 23.4773 4.34141 22.95 4.27812C19.1742 4.00391 13.5053 4.00391 13.5053 4.00391H13.4947C13.4947 4.00391 7.82578 4.00391 4.05 4.27812C3.52266 4.34141 2.37305 4.34668 1.34473 5.42246C0.532617 6.23984 0.274219 8.10137 0.274219 8.10137C0.274219 8.10137 0 10.2898 0 12.473V14.5191C0 16.7023 0.268945 18.8908 0.268945 18.8908C0.268945 18.8908 0.532617 20.7523 1.33945 21.5697C2.36777 22.6455 3.71777 22.6086 4.31895 22.7246C6.48105 22.9303 13.5 22.9936 13.5 22.9936C13.5 22.9936 19.1742 22.983 22.95 22.7141C23.4773 22.6508 24.627 22.6455 25.6553 21.5697C26.4674 20.7523 26.7311 18.8908 26.7311 18.8908C26.7311 18.8908 27 16.7076 27 14.5191V12.473C27 10.2898 26.7311 8.10137 26.7311 8.10137ZM10.7104 17.0029V9.41445L18.0035 13.2219L10.7104 17.0029Z" fill="#828282"/>
</svg>
