<svg width="30" height="30" viewBox="0 0 30 30" fill="none" xmlns="http://www.w3.org/2000/svg">
<path d="M29.7012 9.00195C29.7012 9.00195 29.4082 6.93359 28.5059 6.02539C27.3633 4.83008 26.0859 4.82422 25.5 4.75391C21.3047 4.44922 15.0059 4.44922 15.0059 4.44922H14.9941C14.9941 4.44922 8.69531 4.44922 4.5 4.75391C3.91406 4.82422 2.63672 4.83008 1.49414 6.02539C0.591797 6.93359 0.304688 9.00195 0.304688 9.00195C0.304688 9.00195 0 11.4336 0 13.8594V16.1328C0 18.5586 0.298828 20.9902 0.298828 20.9902C0.298828 20.9902 0.591797 23.0586 1.48828 23.9668C2.63086 25.1621 4.13086 25.1211 4.79883 25.25C7.20117 25.4785 15 25.5488 15 25.5488C15 25.5488 21.3047 25.5371 25.5 25.2383C26.0859 25.168 27.3633 25.1621 28.5059 23.9668C29.4082 23.0586 29.7012 20.9902 29.7012 20.9902C29.7012 20.9902 30 18.5645 30 16.1328V13.8594C30 11.4336 29.7012 9.00195 29.7012 9.00195ZM11.9004 18.8926V10.4609L20.0039 14.6914L11.9004 18.8926Z" fill="#FFFFFF"/>
</svg>
